0
SECTION
2
HEADER
9
$ACADVER
1
AC1015
9
$INSUNITS
70
4
9
$MEASUREMENT
70
1
9
$EXTMIN
10
0.0
20
0.0
9
$EXTMAX
10
420.28
20
297.04
0
ENDSEC
0
SECTION
2
TABLES
0
TABLE
2
LAYER
70
4
0
LAYER
2
PDF_GEOMETRY
70
0
62
7
6
CONTINUOUS
0
LAYER
2
FINISHED_REFERENCE
70
0
62
8
6
CONTINUOUS
0
LAYER
2
BLANK_OUTLINE
70
0
62
1
6
DASHED
0
LAYER
2
NOTES
70
0
62
3
6
CONTINUOUS
0
ENDTAB
0
TABLE
2
LTYPE
70
2
0
LTYPE
2
CONTINUOUS
70
0
3
Solid line
72
65
73
0
40
0.0
0
LTYPE
2
DASHED
70
0
3
Dashed __ __
72
65
73
2
40
6.0
49
4.0
49
-2.0
0
ENDTAB
0
ENDSEC
0
SECTION
2
ENTITIES
0
LINE
8
PDF_GEOMETRY
10
38.237583
20
170.292889
30
0.0
11
56.843083
21
170.292889
31
0.0
0
LINE
8
PDF_GEOMETRY
10
59.848750
20
170.292889
30
0.0
11
62.843833
21
170.292889
31
0.0
0
LINE
8
PDF_GEOMETRY
10
65.849500
20
170.292889
30
0.0
11
95.842667
21
170.292889
31
0.0
0
LINE
8
PDF_GEOMETRY
10
98.848333
20
170.292889
30
0.0
11
101.843417
21
170.292889
31
0.0
0
LINE
8
PDF_GEOMETRY
10
104.849083
20
170.292889
30
0.0
11
134.842250
21
170.292889
31
0.0
0
LINE
8
PDF_GEOMETRY
10
137.847917
20
170.292889
30
0.0
11
140.843000
21
170.292889
31
0.0
0
LINE
8
PDF_GEOMETRY
10
143.848667
20
170.292889
30
0.0
11
173.841833
21
170.292889
31
0.0
0
LINE
8
PDF_GEOMETRY
10
176.847500
20
170.292889
30
0.0
11
179.842583
21
170.292889
31
0.0
0
LINE
8
PDF_GEOMETRY
10
182.848250
20
170.292889
30
0.0
11
201.453750
21
170.292889
31
0.0
0
LINE
8
PDF_GEOMETRY
10
409.945417
20
287.037639
30
0.0
11
409.945417
21
260.536972
31
0.0
0
LINE
8
PDF_GEOMETRY
10
409.945417
20
257.531306
30
0.0
11
409.945417
21
254.536222
31
0.0
0
LINE
8
PDF_GEOMETRY
10
409.945417
20
251.530556
30
0.0
11
409.945417
21
221.537389
31
0.0
0
LINE
8
PDF_GEOMETRY
10
409.945417
20
218.531722
30
0.0
11
409.945417
21
215.536639
31
0.0
0
LINE
8
PDF_GEOMETRY
10
409.945417
20
212.530972
30
0.0
11
409.945417
21
182.537806
31
0.0
0
LINE
8
PDF_GEOMETRY
10
409.945417
20
179.532139
30
0.0
11
409.945417
21
176.537056
31
0.0
0
LINE
8
PDF_GEOMETRY
10
409.945417
20
173.541972
30
0.0
11
409.945417
21
147.041306
31
0.0
0
LINE
8
PDF_GEOMETRY
10
409.945417
20
147.041306
30
0.0
11
409.945417
21
287.037639
31
0.0
0
LINE
8
PDF_GEOMETRY
10
186.520667
20
66.851389
30
0.0
11
186.520667
21
116.857639
31
0.0
0
LINE
8
PDF_GEOMETRY
10
208.523417
20
66.851389
30
0.0
11
208.523417
21
116.857639
31
0.0
0
LINE
8
PDF_GEOMETRY
10
177.524833
20
66.851389
30
0.0
11
217.519250
21
66.851389
31
0.0
0
LINE
8
PDF_GEOMETRY
10
137.519833
20
91.859806
30
0.0
11
137.519833
21
111.851722
31
0.0
0
LINE
8
PDF_GEOMETRY
10
165.025917
20
91.859806
30
0.0
11
165.025917
21
111.851722
31
0.0
0
LINE
8
PDF_GEOMETRY
10
174.021750
20
111.851722
30
0.0
11
174.021750
21
116.857639
31
0.0
0
LINE
8
PDF_GEOMETRY
10
177.524833
20
66.851389
30
0.0
11
177.524833
21
81.858556
31
0.0
0
LINE
8
PDF_GEOMETRY
10
137.519833
20
91.859806
30
0.0
11
174.021750
21
91.859806
31
0.0
0
LINE
8
PDF_GEOMETRY
10
137.519833
20
111.851722
30
0.0
11
174.021750
21
111.851722
31
0.0
0
LINE
8
PDF_GEOMETRY
10
174.021750
20
86.621056
30
0.0
11
174.021750
21
91.859806
31
0.0
0
LINE
8
PDF_GEOMETRY
10
174.021750
20
116.645972
30
0.0
11
186.520667
21
104.147056
31
0.0
0
LINE
8
PDF_GEOMETRY
10
208.523417
20
82.144306
30
0.0
11
217.519250
21
73.137889
31
0.0
0
LINE
8
PDF_GEOMETRY
10
174.021750
20
112.402056
30
0.0
11
186.520667
21
99.903139
31
0.0
0
LINE
8
PDF_GEOMETRY
10
208.523417
20
77.900389
30
0.0
11
217.519250
21
68.904556
31
0.0
0
LINE
8
PDF_GEOMETRY
10
170.328167
20
111.851722
30
0.0
11
186.520667
21
95.659222
31
0.0
0
LINE
8
PDF_GEOMETRY
10
208.523417
20
73.656472
30
0.0
11
215.328500
21
66.851389
31
0.0
0
LINE
8
PDF_GEOMETRY
10
166.084250
20
111.851722
30
0.0
11
186.520667
21
91.415306
31
0.0
0
LINE
8
PDF_GEOMETRY
10
208.523417
20
69.412556
30
0.0
11
211.084583
21
66.851389
31
0.0
0
LINE
8
PDF_GEOMETRY
10
165.025917
20
108.666139
30
0.0
11
186.520667
21
87.171389
31
0.0
0
LINE
8
PDF_GEOMETRY
10
165.025917
20
104.432806
30
0.0
11
186.520667
21
82.927472
31
0.0
0
LINE
8
PDF_GEOMETRY
10
165.025917
20
100.188889
30
0.0
11
173.355000
21
91.859806
31
0.0
0
LINE
8
PDF_GEOMETRY
10
174.021750
20
91.182472
30
0.0
11
186.520667
21
78.683556
31
0.0
0
LINE
8
PDF_GEOMETRY
10
165.025917
20
95.944972
30
0.0
11
169.111083
21
91.859806
31
0.0
0
LINE
8
PDF_GEOMETRY
10
174.021750
20
86.949139
30
0.0
11
174.529750
21
86.430556
31
0.0
0
LINE
8
PDF_GEOMETRY
10
177.101500
20
83.869389
30
0.0
11
186.520667
21
74.439639
31
0.0
0
LINE
8
PDF_GEOMETRY
10
177.524833
20
79.202139
30
0.0
11
186.520667
21
70.206306
31
0.0
0
LINE
8
PDF_GEOMETRY
10
177.524833
20
74.958222
30
0.0
11
185.621083
21
66.851389
31
0.0
0
LINE
8
PDF_GEOMETRY
10
177.524833
20
70.714306
30
0.0
11
181.377167
21
66.851389
31
0.0
0
LINE
8
PDF_GEOMETRY
10
178.054000
20
116.857639
30
0.0
11
186.520667
21
108.380389
31
0.0
0
LINE
8
PDF_GEOMETRY
10
208.523417
20
86.388222
30
0.0
11
217.519250
21
77.381806
31
0.0
0
LINE
8
PDF_GEOMETRY
10
182.297917
20
116.857639
30
0.0
11
186.520667
21
112.624306
31
0.0
0
LINE
8
PDF_GEOMETRY
10
208.523417
20
90.632139
30
0.0
11
217.519250
21
81.625722
31
0.0
0
LINE
8
PDF_GEOMETRY
10
208.523417
20
94.865472
30
0.0
11
217.519250
21
85.869639
31
0.0
0
LINE
8
PDF_GEOMETRY
10
208.523417
20
99.109389
30
0.0
11
217.519250
21
90.113556
31
0.0
0
LINE
8
PDF_GEOMETRY
10
208.523417
20
103.353306
30
0.0
11
217.519250
21
94.357472
31
0.0
0
LINE
8
PDF_GEOMETRY
10
208.523417
20
107.597222
30
0.0
11
217.519250
21
98.601389
31
0.0
0
LINE
8
PDF_GEOMETRY
10
208.523417
20
111.841139
30
0.0
11
217.519250
21
102.845306
31
0.0
0
LINE
8
PDF_GEOMETRY
10
208.523417
20
116.085056
30
0.0
11
217.519250
21
107.078639
31
0.0
0
LINE
8
PDF_GEOMETRY
10
211.994750
20
116.857639
30
0.0
11
217.519250
21
111.322556
31
0.0
0
LINE
8
PDF_GEOMETRY
10
197.516750
20
66.851389
30
0.0
11
197.516750
21
98.516722
31
0.0
0
LINE
8
PDF_GEOMETRY
10
197.516750
20
101.522389
30
0.0
11
197.516750
21
104.517472
31
0.0
0
LINE
8
PDF_GEOMETRY
10
197.516750
20
107.523139
30
0.0
11
197.516750
21
137.516306
31
0.0
0
LINE
8
PDF_GEOMETRY
10
197.516750
20
140.521972
30
0.0
11
197.516750
21
143.517056
31
0.0
0
LINE
8
PDF_GEOMETRY
10
197.516750
20
146.512139
30
0.0
11
197.516750
21
176.515889
31
0.0
0
LINE
8
PDF_GEOMETRY
10
197.516750
20
179.510972
30
0.0
11
197.516750
21
182.516639
31
0.0
0
LINE
8
PDF_GEOMETRY
10
197.516750
20
185.511722
30
0.0
11
197.516750
21
217.177056
31
0.0
0
LINE
8
PDF_GEOMETRY
10
137.519833
20
130.351389
30
0.0
11
137.519833
21
149.761222
31
0.0
0
LINE
8
PDF_GEOMETRY
10
137.519833
20
152.766889
30
0.0
11
137.519833
21
155.761972
31
0.0
0
LINE
8
PDF_GEOMETRY
10
137.519833
20
158.767639
30
0.0
11
137.519833
21
188.760806
31
0.0
0
LINE
8
PDF_GEOMETRY
10
137.519833
20
191.766472
30
0.0
11
137.519833
21
194.761556
31
0.0
0
LINE
8
PDF_GEOMETRY
10
137.519833
20
197.767222
30
0.0
11
137.519833
21
217.177056
31
0.0
0
LINE
8
PDF_GEOMETRY
10
135.519583
20
130.404306
30
0.0
11
135.519583
21
203.291722
31
0.0
0
LINE
8
PDF_GEOMETRY
10
139.520083
20
130.404306
30
0.0
11
139.520083
21
203.291722
31
0.0
0
LINE
8
PDF_GEOMETRY
10
216.947750
20
153.243139
30
0.0
11
198.183500
21
166.387639
31
0.0
0
LINE
8
PDF_GEOMETRY
10
195.728167
20
168.102139
30
0.0
11
193.272833
21
169.827222
31
0.0
0
LINE
8
PDF_GEOMETRY
10
190.817500
20
171.552306
30
0.0
11
172.053250
21
184.686222
31
0.0
0
LINE
8
PDF_GEOMETRY
10
215.868250
20
158.894639
30
0.0
11
213.328250
21
160.662056
31
0.0
0
LINE
8
PDF_GEOMETRY
10
210.872917
20
162.387139
30
0.0
11
208.417583
21
164.101639
31
0.0
0
LINE
8
PDF_GEOMETRY
10
205.962250
20
165.826722
30
0.0
11
203.506917
21
167.551806
31
0.0
0
LINE
8
PDF_GEOMETRY
10
201.041000
20
169.266306
30
0.0
11
198.585667
21
170.991389
31
0.0
0
LINE
8
PDF_GEOMETRY
10
196.130333
20
172.705889
30
0.0
11
193.675000
21
174.430972
31
0.0
0
LINE
8
PDF_GEOMETRY
10
191.219667
20
176.156056
30
0.0
11
188.753750
21
177.870556
31
0.0
0
LINE
8
PDF_GEOMETRY
10
186.298417
20
179.595639
30
0.0
11
183.758417
21
181.363056
31
0.0
0
LINE
8
PDF_GEOMETRY
10
211.275083
20
152.332972
30
0.0
11
208.745667
21
154.110972
31
0.0
0
LINE
8
PDF_GEOMETRY
10
206.290333
20
155.836056
30
0.0
11
203.824417
21
157.550556
31
0.0
0
LINE
8
PDF_GEOMETRY
10
201.369083
20
159.275639
30
0.0
11
198.913750
21
160.990139
31
0.0
0
LINE
8
PDF_GEOMETRY
10
196.458417
20
162.715222
30
0.0
11
194.003083
21
164.440306
31
0.0
0
LINE
8
PDF_GEOMETRY
10
191.537167
20
166.154806
30
0.0
11
189.081833
21
167.879889
31
0.0
0
LINE
8
PDF_GEOMETRY
10
186.626500
20
169.594389
30
0.0
11
184.171167
21
171.319472
31
0.0
0
LINE
8
PDF_GEOMETRY
10
181.715833
20
173.044556
30
0.0
11
179.175833
21
174.811972
31
0.0
0
LINE
8
PDF_GEOMETRY
10
193.516250
20
147.252972
30
0.0
11
193.516250
21
150.427972
31
0.0
0
LINE
8
PDF_GEOMETRY
10
193.516250
20
153.433639
30
0.0
11
193.516250
21
156.608639
31
0.0
0
LINE
8
PDF_GEOMETRY
10
194.521667
20
147.083639
30
0.0
11
194.521667
21
150.173972
31
0.0
0
LINE
8
PDF_GEOMETRY
10
194.521667
20
153.179639
30
0.0
11
194.521667
21
156.269972
31
0.0
0
LINE
8
PDF_GEOMETRY
10
200.522417
20
147.083639
30
0.0
11
200.522417
21
150.173972
31
0.0
0
LINE
8
PDF_GEOMETRY
10
200.522417
20
153.179639
30
0.0
11
200.522417
21
156.269972
31
0.0
0
LINE
8
PDF_GEOMETRY
10
201.517250
20
147.252972
30
0.0
11
201.517250
21
150.427972
31
0.0
0
LINE
8
PDF_GEOMETRY
10
201.517250
20
153.433639
30
0.0
11
201.517250
21
156.608639
31
0.0
0
LINE
8
PDF_GEOMETRY
10
217.519250
20
66.851389
30
0.0
11
217.519250
21
111.851722
31
0.0
0
LINE
8
PDF_GEOMETRY
10
203.041250
20
186.072639
30
0.0
11
147.510500
21
201.958222
31
0.0
0
LINE
8
PDF_GEOMETRY
10
203.041250
20
147.633972
30
0.0
11
147.510500
21
131.748389
31
0.0
0
LINE
8
PDF_GEOMETRY
10
147.510500
20
86.853889
30
0.0
11
172.518917
21
86.853889
31
0.0
0
LINE
8
PDF_GEOMETRY
10
147.510500
20
116.857639
30
0.0
11
212.523917
21
116.857639
31
0.0
0
LINE
8
PDF_GEOMETRY
10
147.510500
20
86.853889
30
0.0
11
147.510500
21
91.859806
31
0.0
0
LINE
8
PDF_GEOMETRY
10
147.510500
20
111.851722
30
0.0
11
147.510500
21
116.857639
31
0.0
0
LINE
8
PDF_GEOMETRY
10
82.835750
20
144.533056
30
0.0
11
97.969917
21
140.204472
31
0.0
0
LINE
8
PDF_GEOMETRY
10
100.859167
20
139.378972
30
0.0
11
103.737833
21
138.553472
31
0.0
0
LINE
8
PDF_GEOMETRY
10
106.627083
20
137.727972
30
0.0
11
109.516333
21
136.902472
31
0.0
0
LINE
8
PDF_GEOMETRY
10
112.395000
20
136.076972
30
0.0
11
127.529167
21
131.748389
31
0.0
0
LINE
8
PDF_GEOMETRY
10
80.020583
20
188.369222
30
0.0
11
96.562333
21
193.099972
31
0.0
0
LINE
8
PDF_GEOMETRY
10
99.451583
20
193.925472
30
0.0
11
102.330250
21
194.750972
31
0.0
0
LINE
8
PDF_GEOMETRY
10
105.219500
20
195.576472
30
0.0
11
108.108750
21
196.401972
31
0.0
0
LINE
8
PDF_GEOMETRY
10
110.987417
20
197.227472
30
0.0
11
127.529167
21
201.958222
31
0.0
0
LINE
8
PDF_GEOMETRY
10
177.524833
20
96.855139
30
0.0
11
193.018833
21
96.855139
31
0.0
0
LINE
8
PDF_GEOMETRY
10
196.024500
20
96.855139
30
0.0
11
199.019583
21
96.855139
31
0.0
0
LINE
8
PDF_GEOMETRY
10
202.025250
20
96.855139
30
0.0
11
217.519250
21
96.855139
31
0.0
0
LINE
8
PDF_GEOMETRY
10
206.533750
20
72.852139
30
0.0
11
206.533750
21
80.853139
31
0.0
0
LINE
8
PDF_GEOMETRY
10
201.326750
20
76.852639
30
0.0
11
217.519250
21
76.852639
31
0.0
0
LINE
8
PDF_GEOMETRY
10
177.524833
20
55.918806
30
0.0
11
217.519250
21
55.918806
31
0.0
0
LINE
8
PDF_GEOMETRY
10
177.524833
20
66.851389
30
0.0
11
177.524833
21
53.918556
31
0.0
0
LINE
8
PDF_GEOMETRY
10
217.519250
20
66.851389
30
0.0
11
217.519250
21
53.918556
31
0.0
0
LINE
8
PDF_GEOMETRY
10
195.548250
20
55.167389
30
0.0
11
195.548250
21
50.500139
31
0.0
0
LINE
8
PDF_GEOMETRY
10
186.520667
20
128.425222
30
0.0
11
208.523417
21
128.425222
31
0.0
0
LINE
8
PDF_GEOMETRY
10
186.520667
20
116.857639
30
0.0
11
186.520667
21
130.425472
31
0.0
0
LINE
8
PDF_GEOMETRY
10
208.523417
20
116.857639
30
0.0
11
208.523417
21
130.425472
31
0.0
0
LINE
8
PDF_GEOMETRY
10
191.187917
20
127.388056
30
0.0
11
191.187917
21
122.720806
31
0.0
0
LINE
8
PDF_GEOMETRY
10
196.966417
20
121.334389
30
0.0
11
196.966417
21
123.451056
31
0.0
0
LINE
8
PDF_GEOMETRY
10
196.257333
20
122.392722
30
0.0
11
197.675500
21
122.392722
31
0.0
0
LINE
8
PDF_GEOMETRY
10
241.712750
20
66.851389
30
0.0
11
241.712750
21
116.857639
31
0.0
0
LINE
8
PDF_GEOMETRY
10
217.519250
20
66.851389
30
0.0
11
243.713000
21
66.851389
31
0.0
0
LINE
8
PDF_GEOMETRY
10
212.523917
20
116.857639
30
0.0
11
243.713000
21
116.857639
31
0.0
0
LINE
8
PDF_GEOMETRY
10
240.961333
20
93.828306
30
0.0
11
236.294083
21
93.828306
31
0.0
0
LINE
8
PDF_GEOMETRY
10
226.483333
20
66.851389
30
0.0
11
226.483333
21
76.852639
31
0.0
0
LINE
8
PDF_GEOMETRY
10
217.519250
20
66.851389
30
0.0
11
228.483583
21
66.851389
31
0.0
0
LINE
8
PDF_GEOMETRY
10
201.326750
20
76.852639
30
0.0
11
228.483583
21
76.852639
31
0.0
0
LINE
8
PDF_GEOMETRY
10
226.483333
20
76.852639
30
0.0
11
226.483333
21
96.855139
31
0.0
0
LINE
8
PDF_GEOMETRY
10
201.326750
20
76.852639
30
0.0
11
228.483583
21
76.852639
31
0.0
0
LINE
8
PDF_GEOMETRY
10
217.519250
20
96.855139
30
0.0
11
228.483583
21
96.855139
31
0.0
0
LINE
8
PDF_GEOMETRY
10
225.308583
20
111.237889
30
0.0
11
226.081167
21
113.068806
31
0.0
0
LINE
8
PDF_GEOMETRY
10
165.713833
20
76.979639
30
0.0
11
166.497000
21
78.810556
31
0.0
0
LINE
8
PDF_GEOMETRY
10
156.908500
20
86.853889
30
0.0
11
156.908500
21
116.857639
31
0.0
0
LINE
8
PDF_GEOMETRY
10
147.510500
20
86.853889
30
0.0
11
158.908750
21
86.853889
31
0.0
0
LINE
8
PDF_GEOMETRY
10
147.510500
20
116.857639
30
0.0
11
158.908750
21
116.857639
31
0.0
0
LINE
8
PDF_GEOMETRY
10
124.618750
20
66.851389
30
0.0
11
124.618750
21
91.859806
31
0.0
0
LINE
8
PDF_GEOMETRY
10
177.524833
20
66.851389
30
0.0
11
122.618500
21
66.851389
31
0.0
0
LINE
8
PDF_GEOMETRY
10
137.519833
20
91.859806
30
0.0
11
122.618500
21
91.859806
31
0.0
0
LINE
8
PDF_GEOMETRY
10
124.618750
20
91.859806
30
0.0
11
124.618750
21
111.851722
31
0.0
0
LINE
8
PDF_GEOMETRY
10
137.519833
20
91.859806
30
0.0
11
122.618500
21
91.859806
31
0.0
0
LINE
8
PDF_GEOMETRY
10
137.519833
20
111.851722
30
0.0
11
122.618500
21
111.851722
31
0.0
0
LINE
8
PDF_GEOMETRY
10
118.586250
20
103.406222
30
0.0
11
118.586250
21
101.988056
31
0.0
0
LINE
8
PDF_GEOMETRY
10
121.539000
20
103.406222
30
0.0
11
121.539000
21
101.988056
31
0.0
0
LINE
8
PDF_GEOMETRY
10
180.001333
20
209.123139
30
0.0
11
166.232417
21
195.417722
31
0.0
0
LINE
8
PDF_GEOMETRY
10
108.817833
20
138.288889
30
0.0
11
105.981500
21
135.463139
31
0.0
0
LINE
8
PDF_GEOMETRY
10
174.836667
20
195.999806
30
0.0
11
175.006000
21
196.052722
31
0.0
0
LINE
8
PDF_GEOMETRY
10
173.355000
20
197.957722
30
0.0
11
173.143333
21
197.746056
31
0.0
0
LINE
8
PDF_GEOMETRY
10
175.006000
20
196.052722
30
0.0
11
173.228000
21
197.830722
31
0.0
0
LINE
8
PDF_GEOMETRY
10
174.402750
20
197.206306
30
0.0
11
174.519167
21
197.047556
31
0.0
0
LINE
8
PDF_GEOMETRY
10
173.852417
20
196.655972
30
0.0
11
174.011167
21
196.539556
31
0.0
0
LINE
8
PDF_GEOMETRY
10
179.567417
20
200.402472
30
0.0
11
181.207833
21
198.740889
31
0.0
0
LINE
8
PDF_GEOMETRY
10
180.932667
20
200.116722
30
0.0
11
179.832000
21
199.026639
31
0.0
0
LINE
8
PDF_GEOMETRY
10
181.631167
20
203.281139
30
0.0
11
182.043917
21
202.868389
31
0.0
0
LINE
8
PDF_GEOMETRY
10
111.654167
20
141.104056
30
0.0
11
134.334250
21
163.678306
31
0.0
0
LINE
8
PDF_GEOMETRY
10
136.461500
20
165.794972
30
0.0
11
138.588750
21
167.911639
31
0.0
0
LINE
8
PDF_GEOMETRY
10
140.716000
20
170.028306
30
0.0
11
163.396083
21
192.602556
31
0.0
0
LINE
8
PDF_GEOMETRY
10
163.438417
20
157.656389
30
0.0
11
111.601250
21
176.050222
31
0.0
0
LINE
8
PDF_GEOMETRY
10
147.616333
20
162.164889
30
0.0
11
146.060583
21
157.772806
31
0.0
0
LINE
8
PDF_GEOMETRY
10
151.034750
20
154.523722
30
0.0
11
151.743833
21
156.523972
31
0.0
0
LINE
8
PDF_GEOMETRY
10
150.727833
20
155.761972
30
0.0
11
152.061333
21
155.285722
31
0.0
0
LINE
8
PDF_GEOMETRY
10
129.518833
20
213.229472
30
0.0
11
145.796000
21
213.229472
31
0.0
0
LINE
8
PDF_GEOMETRY
10
135.519583
20
203.291722
30
0.0
11
135.519583
21
215.229722
31
0.0
0
LINE
8
PDF_GEOMETRY
10
139.520083
20
203.291722
30
0.0
11
139.520083
21
215.229722
31
0.0
0
LINE
8
PDF_GEOMETRY
10
131.519083
20
200.624722
30
0.0
11
145.796000
21
200.624722
31
0.0
0
LINE
8
PDF_GEOMETRY
10
137.519833
20
217.177056
30
0.0
11
137.519833
21
198.624472
31
0.0
0
LINE
8
PDF_GEOMETRY
10
139.520083
20
203.291722
30
0.0
11
139.520083
21
198.624472
31
0.0
0
LINE
8
PDF_GEOMETRY
10
137.519833
20
218.510556
30
0.0
11
197.516750
21
218.510556
31
0.0
0
LINE
8
PDF_GEOMETRY
10
137.519833
20
217.177056
30
0.0
11
137.519833
21
220.510806
31
0.0
0
LINE
8
PDF_GEOMETRY
10
197.516750
20
217.177056
30
0.0
11
197.516750
21
220.510806
31
0.0
0
LINE
8
PDF_GEOMETRY
10
166.666333
20
215.430806
30
0.0
11
168.073917
21
215.430806
31
0.0
0
LINE
8
PDF_GEOMETRY
10
193.516250
20
140.077472
30
0.0
11
201.517250
21
140.077472
31
0.0
0
LINE
8
PDF_GEOMETRY
10
193.516250
20
156.608639
30
0.0
11
193.516250
21
138.077222
31
0.0
0
LINE
8
PDF_GEOMETRY
10
201.517250
20
147.252972
30
0.0
11
201.517250
21
138.077222
31
0.0
0
LINE
8
PDF_GEOMETRY
10
137.519833
20
91.859806
30
0.0
11
130.757083
21
91.859806
31
0.0
0
LINE
8
PDF_GEOMETRY
10
209.687583
20
124.646972
30
0.0
11
209.687583
21
131.653139
31
0.0
0
LINE
8
PDF_GEOMETRY
10
209.687583
20
128.150056
30
0.0
11
215.286167
21
128.150056
31
0.0
0
LINE
8
PDF_GEOMETRY
10
218.323583
20
128.086556
30
0.0
11
219.434833
21
128.086556
31
0.0
0
LINE
8
PDF_GEOMETRY
10
145.827750
20
48.065972
30
0.0
11
164.105167
21
48.065972
31
0.0
0
LINE
8
PDF_GEOMETRY
10
167.608250
20
45.610639
30
0.0
11
167.608250
21
50.510722
31
0.0
0
LINE
8
PDF_GEOMETRY
10
165.163500
20
50.510722
30
0.0
11
170.063583
21
50.510722
31
0.0
0
LINE
8
PDF_GEOMETRY
10
182.403750
20
51.569056
30
0.0
11
182.403750
21
44.562889
31
0.0
0
LINE
8
PDF_GEOMETRY
10
184.668583
20
48.002472
30
0.0
11
185.779833
21
48.002472
31
0.0
0
LINE
8
PDF_GEOMETRY
10
145.827750
20
66.851389
30
0.0
11
145.827750
21
48.065972
31
0.0
0
LINE
8
PDF_GEOMETRY
10
81.026000
20
130.404306
30
0.0
11
90.170000
21
130.404306
31
0.0
0
LINE
8
PDF_GEOMETRY
10
93.662500
20
127.959556
30
0.0
11
93.662500
21
132.859639
31
0.0
0
LINE
8
PDF_GEOMETRY
10
91.217750
20
132.859639
30
0.0
11
96.117833
21
132.859639
31
0.0
0
LINE
8
PDF_GEOMETRY
10
108.458000
20
133.907389
30
0.0
11
108.458000
21
126.911806
31
0.0
0
LINE
8
PDF_GEOMETRY
10
110.722833
20
130.340806
30
0.0
11
111.834083
21
130.340806
31
0.0
0
LINE
8
PDF_GEOMETRY
10
137.519833
20
91.859806
30
0.0
11
77.522917
21
91.859806
31
0.0
0
LINE
8
PDF_GEOMETRY
10
81.026000
20
91.859806
30
0.0
11
81.026000
21
130.404306
31
0.0
0
LINE
8
PDF_GEOMETRY
10
87.524167
20
120.836972
30
0.0
11
89.757250
21
120.836972
31
0.0
0
LINE
8
PDF_GEOMETRY
10
93.260333
20
118.392222
30
0.0
11
93.260333
21
123.281722
31
0.0
0
LINE
8
PDF_GEOMETRY
10
90.805000
20
123.281722
30
0.0
11
95.705083
21
123.281722
31
0.0
0
LINE
8
PDF_GEOMETRY
10
108.055833
20
124.340056
30
0.0
11
108.055833
21
117.333889
31
0.0
0
LINE
8
PDF_GEOMETRY
10
110.310083
20
120.773472
30
0.0
11
111.421333
21
120.773472
31
0.0
0
LINE
8
PDF_GEOMETRY
10
137.519833
20
111.851722
30
0.0
11
84.021083
21
111.851722
31
0.0
0
LINE
8
PDF_GEOMETRY
10
87.524167
20
111.851722
30
0.0
11
87.524167
21
120.836972
31
0.0
0
LINE
8
PDF_GEOMETRY
10
333.480833
20
60.755389
30
0.0
11
334.062917
21
61.739639
31
0.0
0
LINE
8
PDF_GEOMETRY
10
332.284917
20
61.856056
30
0.0
11
333.015167
21
60.691889
31
0.0
0
LINE
8
PDF_GEOMETRY
10
332.856417
20
58.670472
30
0.0
11
333.438500
21
58.554056
31
0.0
0
LINE
8
PDF_GEOMETRY
10
332.856417
20
59.474806
30
0.0
11
333.438500
21
59.358389
31
0.0
0
LINE
8
PDF_GEOMETRY
10
332.433083
20
57.971972
30
0.0
11
334.020583
21
57.739139
31
0.0
0
LINE
8
PDF_GEOMETRY
10
333.597250
20
56.701972
30
0.0
11
333.554917
21
60.289722
31
0.0
0
LINE
8
PDF_GEOMETRY
10
332.200250
20
60.522556
30
0.0
11
334.253417
21
60.226222
31
0.0
0
LINE
8
PDF_GEOMETRY
10
332.856417
20
56.871306
30
0.0
11
332.856417
21
60.406139
31
0.0
0
LINE
8
PDF_GEOMETRY
10
335.174167
20
60.003972
30
0.0
11
336.412417
21
59.887556
31
0.0
0
LINE
8
PDF_GEOMETRY
10
335.375250
20
58.956222
30
0.0
11
336.221917
21
58.839806
31
0.0
0
LINE
8
PDF_GEOMETRY
10
336.571167
20
59.305472
30
0.0
11
336.878083
21
59.305472
31
0.0
0
LINE
8
PDF_GEOMETRY
10
335.682167
20
57.273472
30
0.0
11
336.571167
21
59.305472
31
0.0
0
LINE
8
PDF_GEOMETRY
10
335.491667
20
60.342639
30
0.0
11
334.867250
21
61.676139
31
0.0
0
LINE
8
PDF_GEOMETRY
10
336.031417
20
60.289722
30
0.0
11
336.645250
21
61.506806
31
0.0
0
LINE
8
PDF_GEOMETRY
10
0.000000
20
148.544139
30
0.0
11
14.996583
21
148.544139
31
0.0
0
LINE
8
PDF_GEOMETRY
10
209.994500
20
0.059972
30
0.0
11
209.994500
21
15.056556
31
0.0
0
LINE
8
PDF_GEOMETRY
10
419.989000
20
148.544139
30
0.0
11
404.992417
21
148.544139
31
0.0
0
LINE
8
PDF_GEOMETRY
10
209.994500
20
297.038889
30
0.0
11
209.994500
21
282.042306
31
0.0
0
LINE
8
PDF_GEOMETRY
10
211.275083
20
152.332972
30
0.0
11
219.889917
21
146.311056
31
0.0
0
LINE
8
PDF_GEOMETRY
10
215.868250
20
158.894639
30
0.0
11
224.472500
21
152.862139
31
0.0
0
LINE
8
PDF_GEOMETRY
10
230.568500
20
158.460722
30
0.0
11
230.568500
21
153.793472
31
0.0
0
LINE
8
PDF_GEOMETRY
10
410.252333
20
287.206972
30
0.0
11
410.252333
21
207.207556
31
0.0
0
LINE
8
PDF_GEOMETRY
10
271.113250
20
262.822972
30
0.0
11
411.120167
21
262.822972
31
0.0
0
LINE
8
PDF_GEOMETRY
10
339.947250
20
287.037639
30
0.0
11
339.947250
21
246.820972
31
0.0
0
LINE
8
PDF_GEOMETRY
10
409.945417
20
278.824972
30
0.0
11
411.120167
21
278.824972
31
0.0
0
LINE
8
PDF_GEOMETRY
10
389.942917
20
287.037639
30
0.0
11
389.942917
21
286.825972
31
0.0
0
LINE
8
PDF_GEOMETRY
10
286.120417
20
262.822972
30
0.0
11
286.120417
21
286.825972
31
0.0
0
LINE
8
PDF_GEOMETRY
10
316.113583
20
262.822972
30
0.0
11
316.113583
21
286.825972
31
0.0
0
LINE
8
PDF_GEOMETRY
10
374.946333
20
287.037639
30
0.0
11
374.946333
21
286.825972
31
0.0
0
LINE
8
PDF_GEOMETRY
10
374.946333
20
271.141472
30
0.0
11
374.946333
21
246.820972
31
0.0
0
LINE
8
PDF_GEOMETRY
10
287.739667
20
264.622139
30
0.0
11
286.660167
21
264.780889
31
0.0
0
LINE
8
PDF_GEOMETRY
10
286.660167
20
267.405556
30
0.0
11
287.665583
21
267.289139
31
0.0
0
LINE
8
PDF_GEOMETRY
10
287.718500
20
267.479639
30
0.0
11
287.665583
21
267.289139
31
0.0
0
LINE
8
PDF_GEOMETRY
10
286.660167
20
264.463389
30
0.0
11
286.660167
21
267.521972
31
0.0
0
LINE
8
PDF_GEOMETRY
10
286.660167
20
264.431639
30
0.0
11
286.660167
21
267.670139
31
0.0
0
LINE
8
PDF_GEOMETRY
10
287.221083
20
264.929056
30
0.0
11
286.808333
21
265.818056
31
0.0
0
LINE
8
PDF_GEOMETRY
10
287.125833
20
266.326056
30
0.0
11
287.305750
21
266.632972
31
0.0
0
LINE
8
PDF_GEOMETRY
10
287.041167
20
266.749389
30
0.0
11
287.305750
21
267.172722
31
0.0
0
LINE
8
PDF_GEOMETRY
10
287.072917
20
265.320639
30
0.0
11
287.401000
21
265.235972
31
0.0
0
LINE
8
PDF_GEOMETRY
10
282.321000
20
264.622139
30
0.0
11
282.162250
21
265.585222
31
0.0
0
LINE
8
PDF_GEOMETRY
10
282.268083
20
265.161889
30
0.0
11
282.829000
21
265.045472
31
0.0
0
LINE
8
PDF_GEOMETRY
10
282.056417
20
265.775722
30
0.0
11
282.934833
21
265.627556
31
0.0
0
LINE
8
PDF_GEOMETRY
10
282.215167
20
266.050889
30
0.0
11
282.215167
21
267.289139
31
0.0
0
LINE
8
PDF_GEOMETRY
10
282.754917
20
267.289139
30
0.0
11
282.596167
21
266.897556
31
0.0
0
LINE
8
PDF_GEOMETRY
10
283.008917
20
265.119556
30
0.0
11
283.008917
21
266.749389
31
0.0
0
LINE
8
PDF_GEOMETRY
10
282.829000
20
266.050889
30
0.0
11
282.754917
21
267.246806
31
0.0
0
LINE
8
PDF_GEOMETRY
10
282.215167
20
266.283722
30
0.0
11
282.807833
21
266.167306
31
0.0
0
LINE
8
PDF_GEOMETRY
10
282.522083
20
264.315222
30
0.0
11
282.522083
21
267.670139
31
0.0
0
LINE
8
PDF_GEOMETRY
10
287.443333
20
272.400889
30
0.0
11
287.422167
21
273.173472
31
0.0
0
LINE
8
PDF_GEOMETRY
10
287.443333
20
273.173472
30
0.0
11
286.808333
21
273.247556
31
0.0
0
LINE
8
PDF_GEOMETRY
10
287.443333
20
272.559639
30
0.0
11
286.808333
21
272.633722
31
0.0
0
LINE
8
PDF_GEOMETRY
10
286.416750
20
274.602222
30
0.0
11
287.856083
21
274.369389
31
0.0
0
LINE
8
PDF_GEOMETRY
10
286.903583
20
275.258389
30
0.0
11
286.808333
21
274.559889
31
0.0
0
LINE
8
PDF_GEOMETRY
10
281.823583
20
274.644556
30
0.0
11
282.437417
21
273.988389
31
0.0
0
LINE
8
PDF_GEOMETRY
10
281.865917
20
273.596806
30
0.0
11
282.437417
21
273.480389
31
0.0
0
LINE
8
PDF_GEOMETRY
10
282.564417
20
274.485806
30
0.0
11
283.051250
21
274.411722
31
0.0
0
LINE
8
PDF_GEOMETRY
10
283.083000
20
274.327056
30
0.0
11
283.030083
21
275.798139
31
0.0
0
LINE
8
PDF_GEOMETRY
10
282.564417
20
273.406306
30
0.0
11
283.104167
21
272.898306
31
0.0
0
LINE
8
PDF_GEOMETRY
10
282.564417
20
274.252972
30
0.0
11
282.564417
21
275.798139
31
0.0
0
LINE
8
PDF_GEOMETRY
10
282.564417
20
275.565306
30
0.0
11
283.008917
21
275.491222
31
0.0
0
LINE
8
PDF_GEOMETRY
10
282.956000
20
274.951472
30
0.0
11
282.564417
21
275.025556
31
0.0
0
LINE
8
PDF_GEOMETRY
10
287.295167
20
281.206222
30
0.0
11
287.919583
21
281.058056
31
0.0
0
LINE
8
PDF_GEOMETRY
10
287.655000
20
280.126722
30
0.0
11
287.655000
21
283.566306
31
0.0
0
LINE
8
PDF_GEOMETRY
10
287.655000
20
281.174472
30
0.0
11
287.295167
21
282.634972
31
0.0
0
LINE
8
PDF_GEOMETRY
10
287.655000
20
281.364972
30
0.0
11
287.887833
21
281.862389
31
0.0
0
LINE
8
PDF_GEOMETRY
10
288.226500
20
280.094972
30
0.0
11
288.332333
21
280.666472
31
0.0
0
LINE
8
PDF_GEOMETRY
10
287.919583
20
280.973389
30
0.0
11
288.734500
21
280.782889
31
0.0
0
LINE
8
PDF_GEOMETRY
10
288.332333
20
282.677306
30
0.0
11
288.639250
21
283.449889
31
0.0
0
LINE
8
PDF_GEOMETRY
10
288.533417
20
281.364972
30
0.0
11
287.919583
21
282.751389
31
0.0
0
LINE
8
PDF_GEOMETRY
10
288.279417
20
281.015722
30
0.0
11
287.993667
21
281.830639
31
0.0
0
LINE
8
PDF_GEOMETRY
10
287.940750
20
281.862389
30
0.0
11
288.374667
21
281.714222
31
0.0
0
LINE
8
PDF_GEOMETRY
10
283.887333
20
280.708806
30
0.0
11
283.728583
21
281.248556
31
0.0
0
LINE
8
PDF_GEOMETRY
10
283.294667
20
281.058056
30
0.0
11
283.294667
21
283.640389
31
0.0
0
LINE
8
PDF_GEOMETRY
10
282.987750
20
282.137556
30
0.0
11
283.548667
21
282.063472
31
0.0
0
LINE
8
PDF_GEOMETRY
10
282.903083
20
282.677306
30
0.0
11
283.654500
21
282.560889
31
0.0
0
LINE
8
PDF_GEOMETRY
10
282.881917
20
281.597806
30
0.0
11
283.675667
21
281.481389
31
0.0
0
LINE
8
PDF_GEOMETRY
10
283.707417
20
281.407306
30
0.0
11
283.654500
21
282.836056
31
0.0
0
LINE
8
PDF_GEOMETRY
10
282.881917
20
281.407306
30
0.0
11
282.903083
21
282.836056
31
0.0
0
LINE
8
PDF_GEOMETRY
10
282.754917
20
280.941639
30
0.0
11
283.855583
21
280.782889
31
0.0
0
LINE
8
PDF_GEOMETRY
10
282.754917
20
280.708806
30
0.0
11
282.702000
21
281.481389
31
0.0
0
LINE
8
PDF_GEOMETRY
10
283.167667
20
280.169056
30
0.0
11
283.315833
21
280.708806
31
0.0
0
LINE
8
PDF_GEOMETRY
10
321.595750
20
251.371806
30
0.0
11
320.738500
21
251.604639
31
0.0
0
LINE
8
PDF_GEOMETRY
10
321.056000
20
251.721056
30
0.0
11
321.257083
21
252.260806
31
0.0
0
LINE
8
PDF_GEOMETRY
10
293.052500
20
252.027972
30
0.0
11
293.518167
21
251.911556
31
0.0
0
LINE
8
PDF_GEOMETRY
10
293.052500
20
253.065139
30
0.0
11
293.486417
21
252.493639
31
0.0
0
LINE
8
PDF_GEOMETRY
10
293.719250
20
251.297722
30
0.0
11
293.613417
21
252.260806
31
0.0
0
LINE
8
PDF_GEOMETRY
10
293.560500
20
252.292556
30
0.0
11
294.386000
21
252.102056
31
0.0
0
LINE
8
PDF_GEOMETRY
10
294.311917
20
251.795139
30
0.0
11
294.132000
21
251.297722
31
0.0
0
LINE
8
PDF_GEOMETRY
10
293.793333
20
252.758222
30
0.0
11
294.259000
21
252.641806
31
0.0
0
LINE
8
PDF_GEOMETRY
10
409.945417
20
254.821972
30
0.0
11
411.120167
21
254.821972
31
0.0
0
LINE
8
PDF_GEOMETRY
10
389.942917
20
271.141472
30
0.0
11
389.942917
21
262.822972
31
0.0
0
LINE
8
PDF_GEOMETRY
10
339.947250
20
254.821972
30
0.0
11
374.946333
21
254.821972
31
0.0
0
LINE
8
PDF_GEOMETRY
10
343.958333
20
252.631222
30
0.0
11
344.529833
21
251.943306
31
0.0
0
LINE
8
PDF_GEOMETRY
10
344.085333
20
251.054306
30
0.0
11
344.498083
21
250.821472
31
0.0
0
LINE
8
PDF_GEOMETRY
10
344.635667
20
251.361222
30
0.0
11
345.122500
21
250.398139
31
0.0
0
LINE
8
PDF_GEOMETRY
10
344.085333
20
249.699639
30
0.0
11
344.085333
21
252.366639
31
0.0
0
LINE
8
PDF_GEOMETRY
10
345.948000
20
250.048889
30
0.0
11
345.948000
21
252.789972
31
0.0
0
LINE
8
PDF_GEOMETRY
10
346.127917
20
250.048889
30
0.0
11
346.614750
21
249.900722
31
0.0
0
LINE
8
PDF_GEOMETRY
10
346.223167
20
250.705056
30
0.0
11
346.508917
21
250.588639
31
0.0
0
LINE
8
PDF_GEOMETRY
10
346.180833
20
251.096639
30
0.0
11
346.329000
21
251.551722
31
0.0
0
LINE
8
PDF_GEOMETRY
10
346.720583
20
251.784556
30
0.0
11
346.720583
21
250.281722
31
0.0
0
LINE
8
PDF_GEOMETRY
10
346.096167
20
249.435056
30
0.0
11
345.630500
21
251.054306
31
0.0
0
LINE
8
PDF_GEOMETRY
10
346.329000
20
250.006556
30
0.0
11
346.043250
21
251.477639
31
0.0
0
LINE
8
PDF_GEOMETRY
10
344.297000
20
256.769306
30
0.0
11
344.297000
21
260.314722
31
0.0
0
LINE
8
PDF_GEOMETRY
10
343.757250
20
259.002389
30
0.0
11
344.762667
21
258.854222
31
0.0
0
LINE
8
PDF_GEOMETRY
10
343.990083
20
258.081639
30
0.0
11
344.656833
21
257.965222
31
0.0
0
LINE
8
PDF_GEOMETRY
10
343.577333
20
257.541889
30
0.0
11
343.577333
21
260.198306
31
0.0
0
LINE
8
PDF_GEOMETRY
10
343.778417
20
256.801056
30
0.0
11
343.238667
21
258.579056
31
0.0
0
LINE
8
PDF_GEOMETRY
10
345.408250
20
256.885722
30
0.0
11
345.408250
21
258.653139
31
0.0
0
LINE
8
PDF_GEOMETRY
10
345.048417
20
257.965222
30
0.0
11
345.789250
21
257.806472
31
0.0
0
LINE
8
PDF_GEOMETRY
10
345.662250
20
257.076222
30
0.0
11
345.556417
21
257.848806
31
0.0
0
LINE
8
PDF_GEOMETRY
10
345.143667
20
257.192639
30
0.0
11
345.270667
21
257.732389
31
0.0
0
LINE
8
PDF_GEOMETRY
10
345.408250
20
257.922889
30
0.0
11
344.963750
21
258.960056
31
0.0
0
LINE
8
PDF_GEOMETRY
10
345.408250
20
257.996972
30
0.0
11
345.683417
21
258.504972
31
0.0
0
LINE
8
PDF_GEOMETRY
10
345.048417
20
259.192889
30
0.0
11
345.588167
21
259.002389
31
0.0
0
LINE
8
PDF_GEOMETRY
10
345.842167
20
258.081639
30
0.0
11
346.329000
21
257.965222
31
0.0
0
LINE
8
PDF_GEOMETRY
10
355.166083
20
264.050639
30
0.0
11
355.166083
21
265.172472
31
0.0
0
LINE
8
PDF_GEOMETRY
10
355.166083
20
264.283472
30
0.0
11
355.885750
21
264.209389
31
0.0
0
LINE
8
PDF_GEOMETRY
10
355.906917
20
264.124722
30
0.0
11
355.854000
21
264.939639
31
0.0
0
LINE
8
PDF_GEOMETRY
10
355.885750
20
264.939639
30
0.0
11
355.166083
21
265.013722
31
0.0
0
LINE
8
PDF_GEOMETRY
10
354.753333
20
265.437056
30
0.0
11
356.160917
21
265.320639
31
0.0
0
LINE
8
PDF_GEOMETRY
10
355.134333
20
265.595806
30
0.0
11
355.134333
21
266.632972
31
0.0
0
LINE
8
PDF_GEOMETRY
10
355.134333
20
265.786306
30
0.0
11
355.885750
21
265.712222
31
0.0
0
LINE
8
PDF_GEOMETRY
10
355.906917
20
265.595806
30
0.0
11
355.854000
21
266.442472
31
0.0
0
LINE
8
PDF_GEOMETRY
10
355.885750
20
266.442472
30
0.0
11
355.134333
21
266.516556
31
0.0
0
LINE
8
PDF_GEOMETRY
10
355.494167
20
265.743972
30
0.0
11
355.494167
21
267.289139
31
0.0
0
LINE
8
PDF_GEOMETRY
10
354.827417
20
267.373806
30
0.0
11
356.065667
21
267.257389
31
0.0
0
LINE
8
PDF_GEOMETRY
10
355.060250
20
266.908139
30
0.0
11
355.885750
21
266.834056
31
0.0
0
LINE
8
PDF_GEOMETRY
10
355.240167
20
266.135556
30
0.0
11
355.758750
21
266.093222
31
0.0
0
LINE
8
PDF_GEOMETRY
10
355.166083
20
264.664472
30
0.0
11
355.779917
21
264.590389
31
0.0
0
LINE
8
PDF_GEOMETRY
10
350.149583
20
264.971389
30
0.0
11
351.588917
21
264.749139
31
0.0
0
LINE
8
PDF_GEOMETRY
10
350.456500
20
265.172472
30
0.0
11
350.509417
21
266.484806
31
0.0
0
LINE
8
PDF_GEOMETRY
10
350.488250
20
265.320639
30
0.0
11
351.313750
21
265.204222
31
0.0
0
LINE
8
PDF_GEOMETRY
10
351.387833
20
266.135556
30
0.0
11
350.509417
21
266.251972
31
0.0
0
LINE
8
PDF_GEOMETRY
10
350.562333
20
265.786306
30
0.0
11
351.176167
21
265.712222
31
0.0
0
LINE
8
PDF_GEOMETRY
10
350.901000
20
264.315222
30
0.0
11
350.901000
21
267.215056
31
0.0
0
LINE
8
PDF_GEOMETRY
10
351.588917
20
267.172722
30
0.0
11
350.202500
21
267.331472
31
0.0
0
LINE
8
PDF_GEOMETRY
10
351.366667
20
265.013722
30
0.0
11
351.282000
21
266.093222
31
0.0
0
LINE
8
PDF_GEOMETRY
10
351.282000
20
266.675306
30
0.0
11
350.488250
21
266.791722
31
0.0
0
LINE
8
PDF_GEOMETRY
10
359.420583
20
252.366639
30
0.0
11
359.981500
21
252.366639
31
0.0
0
LINE
8
PDF_GEOMETRY
10
361.748917
20
252.366639
30
0.0
11
362.299250
21
252.366639
31
0.0
0
LINE
8
PDF_GEOMETRY
10
379.687667
20
268.252222
30
0.0
11
379.687667
21
264.971389
31
0.0
0
LINE
8
PDF_GEOMETRY
10
379.920500
20
266.865806
30
0.0
11
379.687667
21
266.326056
31
0.0
0
LINE
8
PDF_GEOMETRY
10
379.973417
20
265.934472
30
0.0
11
379.327833
21
266.093222
31
0.0
0
LINE
8
PDF_GEOMETRY
10
379.274917
20
267.553722
30
0.0
11
379.687667
21
266.093222
31
0.0
0
LINE
8
PDF_GEOMETRY
10
380.047500
20
266.124972
30
0.0
11
380.714250
21
265.976806
31
0.0
0
LINE
8
PDF_GEOMETRY
10
382.100667
20
268.368639
30
0.0
11
382.100667
21
264.929056
31
0.0
0
LINE
8
PDF_GEOMETRY
10
381.560917
20
267.289139
30
0.0
11
382.418167
21
266.939889
31
0.0
0
LINE
8
PDF_GEOMETRY
10
381.772583
20
266.209639
30
0.0
11
381.920750
21
266.781139
31
0.0
0
LINE
8
PDF_GEOMETRY
10
381.772583
20
265.468806
30
0.0
11
381.899583
21
265.934472
31
0.0
0
LINE
8
PDF_GEOMETRY
10
381.381000
20
266.516556
30
0.0
11
381.592667
21
267.013972
31
0.0
0
LINE
8
PDF_GEOMETRY
10
381.105833
20
265.511139
30
0.0
11
381.201083
21
266.093222
31
0.0
0
LINE
8
PDF_GEOMETRY
10
381.613833
20
265.437056
30
0.0
11
381.465667
21
266.326056
31
0.0
0
LINE
8
PDF_GEOMETRY
10
380.968250
20
266.442472
30
0.0
11
381.666750
21
266.283722
31
0.0
0
LINE
8
PDF_GEOMETRY
10
381.381000
20
264.971389
30
0.0
11
381.381000
21
268.294556
31
0.0
0
LINE
8
PDF_GEOMETRY
10
393.774083
20
268.273389
30
0.0
11
393.774083
21
264.770306
31
0.0
0
LINE
8
PDF_GEOMETRY
10
395.329833
20
264.770306
30
0.0
11
395.329833
21
268.273389
31
0.0
0
LINE
8
PDF_GEOMETRY
10
393.774083
20
266.442472
30
0.0
11
395.329833
21
266.442472
31
0.0
0
LINE
8
PDF_GEOMETRY
10
397.002000
20
264.770306
30
0.0
11
397.002000
21
268.273389
31
0.0
0
LINE
8
PDF_GEOMETRY
10
396.218833
20
264.770306
30
0.0
11
397.785167
21
264.770306
31
0.0
0
LINE
8
PDF_GEOMETRY
10
271.113250
20
278.824972
30
0.0
11
339.947250
21
278.824972
31
0.0
0
LINE
8
PDF_GEOMETRY
10
354.943833
20
287.037639
30
0.0
11
354.943833
21
286.825972
31
0.0
0
LINE
8
PDF_GEOMETRY
10
354.943833
20
270.823972
30
0.0
11
354.943833
21
246.820972
31
0.0
0
LWPOLYLINE
8
PDF_GEOMETRY
90
4
70
1
10
164.105167
20
51.569056
10
171.111333
20
51.569056
10
171.111333
20
44.562889
10
164.105167
20
44.562889
0
LWPOLYLINE
8
PDF_GEOMETRY
90
4
70
1
10
90.170000
20
133.907389
10
97.165583
20
133.907389
10
97.165583
20
126.911806
10
90.170000
20
126.911806
0
LWPOLYLINE
8
PDF_GEOMETRY
90
4
70
1
10
89.757250
20
124.340056
10
96.763417
20
124.340056
10
96.763417
20
117.333889
10
89.757250
20
117.333889
0
LWPOLYLINE
8
PDF_GEOMETRY
90
4
70
1
10
9.990667
20
287.048222
10
409.998333
20
287.048222
10
409.998333
20
10.050639
10
9.990667
20
10.050639
0
LWPOLYLINE
8
PDF_GEOMETRY
90
4
70
1
10
0.000000
20
297.038889
10
419.989000
20
297.038889
10
419.989000
20
0.059972
10
0.000000
20
0.059972
0
LWPOLYLINE
8
PDF_GEOMETRY
90
4
70
1
10
411.120167
20
246.820972
10
271.113250
20
246.820972
10
271.113250
20
286.825972
10
411.120167
20
286.825972
0
LWPOLYLINE
8
PDF_GEOMETRY
90
9
70
0
10
212.529208
20
116.847056
10
213.537010
20
116.745461
10
214.475680
20
116.454082
10
215.325108
20
115.993029
10
216.065186
20
115.382409
10
216.675807
20
114.642330
10
217.136860
20
113.792902
10
217.428239
20
112.854233
10
217.529833
20
111.846431
0
LWPOLYLINE
8
PDF_GEOMETRY
90
9
70
0
10
172.524208
20
86.853889
10
173.532010
20
86.752294
10
174.470680
20
86.460916
10
175.320108
20
85.999862
10
176.060186
20
85.389242
10
176.670807
20
84.649163
10
177.131860
20
83.799735
10
177.423239
20
82.861066
10
177.524833
20
81.853264
0
LWPOLYLINE
8
PDF_GEOMETRY
90
33
70
0
10
208.523417
20
166.848014
10
208.299908
20
164.630854
10
207.658874
20
162.565784
10
206.644554
20
160.697042
10
205.301187
20
159.068869
10
203.673013
20
157.725502
10
201.804272
20
156.711182
10
199.739201
20
156.070148
10
197.522042
20
155.846639
10
195.304882
20
156.070148
10
193.239812
20
156.711182
10
191.371070
20
157.725502
10
189.742896
20
159.068869
10
188.399530
20
160.697042
10
187.385210
20
162.565784
10
186.744176
20
164.630854
10
186.520667
20
166.848014
10
186.744176
20
169.065173
10
187.385210
20
171.130244
10
188.399530
20
172.998985
10
189.742896
20
174.627159
10
191.371070
20
175.970526
10
193.239812
20
176.984846
10
195.304882
20
177.625880
10
197.522042
20
177.849389
10
199.739201
20
177.625880
10
201.804272
20
176.984846
10
203.673013
20
175.970526
10
205.301187
20
174.627159
10
206.644554
20
172.998985
10
207.658874
20
171.130244
10
208.299908
20
169.065173
10
208.523417
20
166.848014
0
LWPOLYLINE
8
PDF_GEOMETRY
90
33
70
0
10
217.519250
20
166.848014
10
217.112978
20
162.817879
10
215.947772
20
159.064198
10
214.104043
20
155.667385
10
211.662207
20
152.707852
10
208.702675
20
150.266015
10
205.305862
20
148.422285
10
201.552179
20
147.257078
10
197.522042
20
146.850806
10
193.491904
20
147.257078
10
189.738222
20
148.422285
10
186.341408
20
150.266015
10
183.381876
20
152.707852
10
180.940040
20
155.667385
10
179.096312
20
159.064198
10
177.931105
20
162.817879
10
177.524833
20
166.848014
10
177.931105
20
170.878149
10
179.096312
20
174.631830
10
180.940040
20
178.028643
10
183.381876
20
180.988175
10
186.341408
20
183.430013
10
189.738222
20
185.273742
10
193.491904
20
186.438950
10
197.522042
20
186.845222
10
201.552179
20
186.438950
10
205.305862
20
185.273742
10
208.702675
20
183.430013
10
211.662207
20
180.988175
10
214.104043
20
178.028643
10
215.947772
20
174.631830
10
217.112978
20
170.878149
10
217.519250
20
166.848014
0
LWPOLYLINE
8
PDF_GEOMETRY
90
17
70
0
10
139.524538
20
194.276025
10
144.747319
20
193.387770
10
149.573319
20
191.575099
10
153.910199
20
188.937328
10
157.665619
20
185.573771
10
160.747240
20
181.583746
10
163.062723
20
177.066568
10
164.519728
20
172.121552
10
165.025917
20
166.848014
10
164.519728
20
161.574476
10
163.062723
20
156.629460
10
160.747240
20
152.112282
10
157.665619
20
148.122256
10
153.910199
20
144.758700
10
149.573319
20
142.120929
10
144.747319
20
140.308258
10
139.524538
20
139.420003
0
LWPOLYLINE
8
PDF_GEOMETRY
90
22
70
0
10
135.519583
20
130.404306
10
134.291917
20
130.499556
10
133.074833
20
130.626556
10
131.857750
20
130.795889
10
130.640667
20
131.007556
10
129.444750
20
131.261556
10
128.248833
20
131.547306
10
127.063500
20
131.885972
10
125.888750
20
132.256389
10
124.735167
20
132.669139
10
123.592167
20
133.113639
10
122.459750
20
133.611056
10
121.348500
20
134.129639
10
120.258417
20
134.701139
10
119.178917
20
135.293806
10
118.131167
20
135.928806
10
117.094000
20
136.606139
10
116.088583
20
137.304639
10
115.104333
20
138.045472
10
114.151833
20
138.818056
10
113.220500
20
139.622389
10
112.670167
20
140.119806
0
LWPOLYLINE
8
PDF_GEOMETRY
90
4
70
0
10
110.564083
20
142.247056
10
109.780917
20
143.136056
10
108.997750
20
144.077972
10
108.637917
20
144.554222
0
LWPOLYLINE
8
PDF_GEOMETRY
90
5
70
0
10
106.902250
20
146.998972
10
106.849333
20
147.073056
10
106.193167
20
148.120806
10
105.579333
20
149.179139
10
105.378250
20
149.581306
0
LWPOLYLINE
8
PDF_GEOMETRY
90
27
70
0
10
104.065917
20
152.269472
10
103.960083
20
152.491722
10
103.494417
20
153.634722
10
103.071083
20
154.788306
10
102.690083
20
155.952472
10
102.340833
20
157.137806
10
102.033917
20
158.323139
10
101.769333
20
159.529639
10
101.536500
20
160.736139
10
101.356583
20
161.953222
10
101.208417
20
163.170306
10
101.102583
20
164.397972
10
101.039083
20
165.625639
10
101.017917
20
166.853306
10
101.039083
20
168.080972
10
101.102583
20
169.308639
10
101.208417
20
170.536306
10
101.356583
20
171.753389
10
101.536500
20
172.970472
10
101.769333
20
174.176972
10
102.033917
20
175.383472
10
102.340833
20
176.568806
10
102.690083
20
177.754139
10
103.071083
20
178.918306
10
103.494417
20
180.071889
10
103.960083
20
181.204306
10
104.065917
20
181.437139
0
LWPOLYLINE
8
PDF_GEOMETRY
90
5
70
0
10
105.378250
20
184.135889
10
105.579333
20
184.516889
10
106.193167
20
185.585806
10
106.849333
20
186.633556
10
106.902250
20
186.718222
0
LWPOLYLINE
8
PDF_GEOMETRY
90
4
70
0
10
108.637917
20
189.162972
10
108.997750
20
189.628639
10
109.780917
20
190.570556
10
110.564083
20
191.459556
0
LWPOLYLINE
8
PDF_GEOMETRY
90
22
70
0
10
112.680750
20
193.586806
10
113.220500
20
194.084222
10
114.151833
20
194.888556
10
115.104333
20
195.661139
10
116.088583
20
196.401972
10
117.094000
20
197.100472
10
118.131167
20
197.777806
10
119.178917
20
198.412806
10
120.258417
20
199.005472
10
121.348500
20
199.576972
10
122.459750
20
200.095556
10
123.592167
20
200.582389
10
124.735167
20
201.037472
10
125.888750
20
201.450222
10
127.063500
20
201.820639
10
128.248833
20
202.148722
10
129.444750
20
202.445056
10
130.640667
20
202.699056
10
131.857750
20
202.910722
10
133.074833
20
203.080056
10
134.291917
20
203.207056
10
135.519583
20
203.291722
0
LWPOLYLINE
8
PDF_GEOMETRY
90
33
70
0
10
135.519583
20
139.421306
10
134.450667
20
139.527139
10
133.392333
20
139.664722
10
132.344583
20
139.844639
10
131.296833
20
140.066889
10
130.259667
20
140.331472
10
129.233083
20
140.627806
10
128.217083
20
140.977056
10
127.222250
20
141.358056
10
126.238000
20
141.781389
10
125.264333
20
142.236472
10
124.322417
20
142.733889
10
123.391083
20
143.263056
10
122.480917
20
143.834556
10
121.602500
20
144.427222
10
120.734667
20
145.072806
10
119.898583
20
145.739556
10
119.094250
20
146.438056
10
118.311083
20
147.168306
10
117.559667
20
147.930306
10
116.840000
20
148.724056
10
116.152083
20
149.538972
10
115.495917
20
150.385639
10
114.871500
20
151.253472
10
114.278833
20
152.153056
10
113.728500
20
153.063222
10
113.209917
20
153.994556
10
112.733667
20
154.957639
10
112.289167
20
155.931306
10
111.876417
20
156.915556
10
111.516583
20
157.920972
10
111.188500
20
158.936972
10
111.040333
20
159.444972
0
LWPOLYLINE
8
PDF_GEOMETRY
90
5
70
0
10
110.394750
20
162.376556
10
110.278333
20
163.117389
10
110.151333
20
164.186306
10
110.066667
20
165.244639
10
110.066667
20
165.350472
0
LWPOLYLINE
8
PDF_GEOMETRY
90
5
70
0
10
110.066667
20
168.356139
10
110.066667
20
168.451389
10
110.151333
20
169.520306
10
110.278333
20
170.589222
10
110.394750
20
171.330056
0
LWPOLYLINE
8
PDF_GEOMETRY
90
33
70
0
10
111.040333
20
174.261639
10
111.188500
20
174.759056
10
111.516583
20
175.785639
10
111.876417
20
176.791056
10
112.289167
20
177.775306
10
112.733667
20
178.748972
10
113.209917
20
179.701472
10
113.728500
20
180.643389
10
114.278833
20
181.553556
10
114.871500
20
182.453139
10
115.495917
20
183.320972
10
116.152083
20
184.167639
10
116.840000
20
184.982556
10
117.559667
20
185.776306
10
118.311083
20
186.538306
10
119.094250
20
187.268556
10
119.898583
20
187.967056
10
120.734667
20
188.633806
10
121.602500
20
189.268806
10
122.480917
20
189.872056
10
123.391083
20
190.443556
10
124.322417
20
190.972722
10
125.264333
20
191.470139
10
126.238000
20
191.925222
10
127.222250
20
192.348556
10
128.217083
20
192.729556
10
129.233083
20
193.068222
10
130.259667
20
193.375139
10
131.296833
20
193.639722
10
132.344583
20
193.861972
10
133.392333
20
194.041889
10
134.450667
20
194.179472
10
135.519583
20
194.274722
0
LWPOLYLINE
8
PDF_GEOMETRY
90
17
70
0
10
139.525592
20
203.289769
10
146.028037
20
202.344119
10
152.112224
20
200.308023
10
157.670338
20
197.283381
10
162.594564
20
193.372096
10
166.777086
20
188.676072
10
170.110089
20
183.297209
10
172.485757
20
177.337410
10
173.796275
20
170.898578
10
173.938433
20
164.329266
10
172.936007
20
157.992217
10
170.871677
20
152.010607
10
167.828124
20
146.507612
10
163.888028
20
141.606408
10
159.134067
20
137.430170
10
153.648923
20
134.102075
10
147.515275
20
131.745299
0
LWPOLYLINE
8
PDF_GEOMETRY
90
17
70
0
10
147.515275
20
201.950729
10
153.648923
20
199.593952
10
159.134067
20
196.265857
10
163.888028
20
192.089620
10
167.828124
20
187.188416
10
170.871677
20
181.685421
10
172.936007
20
175.703811
10
173.938433
20
169.366762
10
173.796275
20
162.797450
10
172.485757
20
156.358618
10
170.110089
20
150.398819
10
166.777086
20
145.019956
10
162.594564
20
140.323931
10
157.670338
20
136.412647
10
152.112224
20
133.388005
10
146.028037
20
131.351908
10
139.525592
20
130.406259
0
LWPOLYLINE
8
PDF_GEOMETRY
90
33
70
0
10
200.522417
20
96.849847
10
200.461460
20
96.245168
10
200.286632
20
95.681968
10
200.009998
20
95.172311
10
199.643625
20
94.728264
10
199.199578
20
94.361890
10
198.689921
20
94.085257
10
198.126720
20
93.910429
10
197.522042
20
93.849472
10
196.917363
20
93.910429
10
196.354162
20
94.085257
10
195.844506
20
94.361890
10
195.400458
20
94.728264
10
195.034085
20
95.172311
10
194.757452
20
95.681968
10
194.582624
20
96.245168
10
194.521667
20
96.849847
10
194.582624
20
97.454526
10
194.757452
20
98.017727
10
195.034085
20
98.527383
10
195.400458
20
98.971431
10
195.844506
20
99.337804
10
196.354162
20
99.614437
10
196.917363
20
99.789265
10
197.522042
20
99.850222
10
198.126720
20
99.789265
10
198.689921
20
99.614437
10
199.199578
20
99.337804
10
199.643625
20
98.971431
10
200.009998
20
98.527383
10
200.286632
20
98.017727
10
200.461460
20
97.454526
10
200.522417
20
96.849847
0
LWPOLYLINE
8
PDF_GEOMETRY
90
25
70
0
10
197.522042
20
100.845056
10
198.327218
20
100.763887
10
199.077161
20
100.531093
10
199.755804
20
100.162739
10
200.347084
20
99.674889
10
200.834933
20
99.083610
10
201.203288
20
98.404966
10
201.436082
20
97.655023
10
201.517250
20
96.849847
10
201.436082
20
96.044671
10
201.203288
20
95.294728
10
200.834933
20
94.616085
10
200.347084
20
94.024805
10
199.755804
20
93.536956
10
199.077161
20
93.168601
10
198.327218
20
92.935807
10
197.522042
20
92.854639
10
196.716865
20
92.935807
10
195.966923
20
93.168601
10
195.288279
20
93.536956
10
194.697000
20
94.024805
10
194.209150
20
94.616085
10
193.840795
20
95.294728
10
193.608001
20
96.044671
10
193.526833
20
96.849847
0
LWPOLYLINE
8
PDF_GEOMETRY
90
33
70
0
10
206.539042
20
72.852139
10
206.136988
20
72.933307
10
205.762514
20
73.166102
10
205.423641
20
73.534458
10
205.128393
20
74.022308
10
204.884791
20
74.613588
10
204.700857
20
75.292232
10
204.584614
20
76.042173
10
204.544083
20
76.847347
10
204.584614
20
77.652521
10
204.700857
20
78.402463
10
204.884791
20
79.081106
10
205.128393
20
79.672386
10
205.423641
20
80.160237
10
205.762514
20
80.528592
10
206.136988
20
80.761387
10
206.539042
20
80.842556
10
206.941095
20
80.761387
10
207.315570
20
80.528592
10
207.654442
20
80.160237
10
207.949690
20
79.672386
10
208.193292
20
79.081106
10
208.377226
20
78.402463
10
208.493470
20
77.652521
10
208.534000
20
76.847347
10
208.493470
20
76.042173
10
208.377226
20
75.292232
10
208.193292
20
74.613588
10
207.949690
20
74.022308
10
207.654442
20
73.534458
10
207.315570
20
73.166102
10
206.941095
20
72.933307
10
206.539042
20
72.852139
0
LWPOLYLINE
8
PDF_GEOMETRY
90
100
70
0
10
82.835750
20
144.533056
10
83.502500
20
145.284472
10
84.169250
20
146.057056
10
84.836000
20
146.840222
10
85.492167
20
147.655139
10
86.137750
20
148.480639
10
86.783333
20
149.316722
10
87.397167
20
150.163389
10
88.000417
20
151.020639
10
88.593083
20
151.888472
10
89.154000
20
152.766889
10
89.683167
20
153.634722
10
90.191167
20
154.513139
10
90.667417
20
155.391556
10
91.111917
20
156.259389
10
91.514083
20
157.127222
10
91.884500
20
157.984472
10
92.053833
20
158.407806
10
92.212583
20
158.831139
10
92.350167
20
159.254472
10
92.487750
20
159.667222
10
92.614750
20
160.079972
10
92.720583
20
160.492722
10
92.815833
20
160.894889
10
92.900500
20
161.297056
10
92.974583
20
161.699222
10
93.027500
20
162.090806
10
93.069833
20
162.471806
10
93.101583
20
162.852806
10
93.112167
20
163.233806
10
93.112167
20
163.604222
10
93.101583
20
163.964056
10
93.069833
20
164.323889
10
93.016917
20
164.683722
10
92.953417
20
165.022389
10
92.868750
20
165.361056
10
92.773500
20
165.689139
10
92.657083
20
166.017222
10
92.519500
20
166.334722
10
92.371333
20
166.641639
10
92.202000
20
166.937972
10
92.011500
20
167.223722
10
91.799833
20
167.509472
10
91.577583
20
167.784639
10
91.323583
20
168.038639
10
91.059000
20
168.292639
10
90.773250
20
168.536056
10
90.476917
20
168.779472
10
90.148833
20
169.001722
10
89.820750
20
169.223972
10
89.471500
20
169.435639
10
89.111667
20
169.647306
10
88.741250
20
169.848389
10
87.968667
20
170.250556
10
87.164333
20
170.620972
10
86.338833
20
170.991389
10
85.502750
20
171.361806
10
83.830583
20
172.092056
10
83.015667
20
172.473056
10
82.232500
20
172.864639
10
81.851500
20
173.065722
10
81.481083
20
173.277389
10
81.121250
20
173.489056
10
80.772000
20
173.711306
10
80.443917
20
173.933556
10
80.126417
20
174.166389
10
79.819500
20
174.409806
10
79.533750
20
174.663806
10
79.269167
20
174.928389
10
79.025750
20
175.203556
10
78.803500
20
175.478722
10
78.591833
20
175.764472
10
78.401333
20
176.071389
10
78.232000
20
176.378306
10
78.083833
20
176.695806
10
77.946250
20
177.023889
10
77.829833
20
177.351972
10
77.734583
20
177.690639
10
77.649917
20
178.039889
10
77.586417
20
178.399722
10
77.533500
20
178.759556
10
77.501750
20
179.129972
10
77.480583
20
179.500389
10
77.480583
20
179.891972
10
77.491167
20
180.272972
10
77.512333
20
180.664556
10
77.554667
20
181.066722
10
77.607583
20
181.468889
10
77.671083
20
181.881639
10
77.755750
20
182.294389
10
77.840417
20
182.707139
10
77.946250
20
183.130472
10
78.062667
20
183.553806
10
78.189667
20
183.977139
10
78.327250
20
184.411056
10
78.475417
20
184.844972
10
78.814083
20
185.712806
10
79.173917
20
186.591222
10
79.586667
20
187.480222
10
80.020583
20
188.369222
0
LWPOLYLINE
8
PDF_GEOMETRY
90
4
70
1
10
181.525333
20
55.410806
10
181.525333
20
55.918806
10
177.524833
20
55.918806
10
181.525333
20
55.410806
0
LWPOLYLINE
8
PDF_GEOMETRY
90
5
70
1
10
181.525333
20
55.918806
10
177.524833
20
55.918806
10
181.525333
20
56.416222
10
181.525333
20
55.918806
10
181.525333
20
55.918806
0
LWPOLYLINE
8
PDF_GEOMETRY
90
4
70
1
10
213.518750
20
55.410806
10
217.519250
20
55.918806
10
213.518750
20
55.918806
10
213.518750
20
55.410806
0
LWPOLYLINE
8
PDF_GEOMETRY
90
5
70
1
10
217.519250
20
55.918806
10
213.518750
20
55.918806
10
213.518750
20
56.416222
10
217.519250
20
55.918806
10
217.519250
20
55.918806
0
LWPOLYLINE
8
PDF_GEOMETRY
90
17
70
0
10
195.442417
20
53.992639
10
195.103750
20
53.833889
10
194.881500
20
53.495222
10
194.775667
20
52.997806
10
194.775667
20
52.659139
10
194.881500
20
52.161722
10
195.103750
20
51.833639
10
195.442417
20
51.664306
10
195.664667
20
51.664306
10
195.992750
20
51.833639
10
196.215000
20
52.161722
10
196.331417
20
52.659139
10
196.331417
20
52.997806
10
196.215000
20
53.495222
10
195.992750
20
53.833889
10
195.664667
20
53.992639
10
195.442417
20
53.992639
0
LWPOLYLINE
8
PDF_GEOMETRY
90
4
70
0
10
198.331667
20
53.992639
10
198.331667
20
50.500139
10
197.220417
20
52.828472
10
198.882000
20
52.828472
0
LWPOLYLINE
8
PDF_GEOMETRY
90
17
70
0
10
200.109667
20
50.500139
10
199.771000
20
50.658889
10
199.548750
20
51.166889
10
199.442917
20
51.992389
10
199.442917
20
52.500389
10
199.548750
20
53.325889
10
199.771000
20
53.833889
10
200.109667
20
53.992639
10
200.331917
20
53.992639
10
200.660000
20
53.833889
10
200.882250
20
53.325889
10
200.998667
20
52.500389
10
200.998667
20
51.992389
10
200.882250
20
51.166889
10
200.660000
20
50.658889
10
200.331917
20
50.500139
10
200.109667
20
50.500139
0
LWPOLYLINE
8
PDF_GEOMETRY
90
4
70
1
10
190.521167
20
127.927806
10
190.521167
20
128.425222
10
186.520667
20
128.425222
10
190.521167
20
127.927806
0
LWPOLYLINE
8
PDF_GEOMETRY
90
5
70
1
10
190.521167
20
128.425222
10
186.520667
20
128.425222
10
190.521167
20
128.933222
10
190.521167
20
128.425222
10
190.521167
20
128.425222
0
LWPOLYLINE
8
PDF_GEOMETRY
90
4
70
1
10
204.522917
20
127.927806
10
208.523417
20
128.425222
10
204.522917
20
128.425222
10
204.522917
20
127.927806
0
LWPOLYLINE
8
PDF_GEOMETRY
90
5
70
1
10
208.523417
20
128.425222
10
204.522917
20
128.425222
10
204.522917
20
128.933222
10
208.523417
20
128.425222
10
208.523417
20
128.425222
0
LWPOLYLINE
8
PDF_GEOMETRY
90
17
70
0
10
191.082083
20
126.223889
10
190.743417
20
126.054556
10
190.521167
20
125.726472
10
190.415333
20
125.229056
10
190.415333
20
124.890389
10
190.521167
20
124.392972
10
190.743417
20
124.054306
10
191.082083
20
123.895556
10
191.304333
20
123.895556
10
191.632417
20
124.054306
10
191.854667
20
124.392972
10
191.971083
20
124.890389
10
191.971083
20
125.229056
10
191.854667
20
125.726472
10
191.632417
20
126.054556
10
191.304333
20
126.223889
10
191.082083
20
126.223889
0
LWPOLYLINE
8
PDF_GEOMETRY
90
14
70
0
10
192.468500
20
123.556889
10
192.468500
20
123.387556
10
192.584917
20
123.059472
10
192.690750
20
122.890139
10
192.913000
20
122.720806
10
193.357500
20
122.720806
10
193.579750
20
122.890139
10
193.696167
20
123.059472
10
193.802000
20
123.387556
10
193.802000
20
123.726222
10
193.696167
20
124.054306
10
193.473917
20
124.562306
10
192.362667
20
126.223889
10
193.918417
20
126.223889
0
LWPOLYLINE
8
PDF_GEOMETRY
90
14
70
0
10
194.415833
20
123.556889
10
194.415833
20
123.387556
10
194.532250
20
123.059472
10
194.638083
20
122.890139
10
194.870917
20
122.720806
10
195.315417
20
122.720806
10
195.537667
20
122.890139
10
195.643500
20
123.059472
10
195.759917
20
123.387556
10
195.759917
20
123.726222
10
195.643500
20
124.054306
10
195.421250
20
124.562306
10
194.310000
20
126.223889
10
195.865750
20
126.223889
0
LWPOLYLINE
8
PDF_GEOMETRY
90
17
70
0
10
198.109417
20
120.974556
10
197.876583
20
121.090972
10
197.717833
20
121.450806
10
197.633167
20
122.043472
10
197.633167
20
122.392722
10
197.717833
20
122.985389
10
197.876583
20
123.334639
10
198.109417
20
123.451056
10
198.268167
20
123.451056
10
198.501000
20
123.334639
10
198.659750
20
122.985389
10
198.733833
20
122.392722
10
198.733833
20
122.043472
10
198.659750
20
121.450806
10
198.501000
20
121.090972
10
198.268167
20
120.974556
10
198.109417
20
120.974556
0
LWPOLYLINE
8
PDF_GEOMETRY
90
4
70
0
10
199.093667
20
123.218222
10
199.019583
20
123.334639
10
199.093667
20
123.451056
10
199.167750
20
123.334639
0
LWPOLYLINE
8
PDF_GEOMETRY
90
17
70
0
10
200.861083
20
120.974556
10
200.628250
20
121.090972
10
200.469500
20
121.450806
10
200.395417
20
122.043472
10
200.395417
20
122.392722
10
200.469500
20
122.985389
10
200.628250
20
123.334639
10
200.861083
20
123.451056
10
201.019833
20
123.451056
10
201.263250
20
123.334639
10
201.411417
20
122.985389
10
201.496083
20
122.392722
10
201.496083
20
122.043472
10
201.411417
20
121.450806
10
201.263250
20
121.090972
10
201.019833
20
120.974556
10
200.861083
20
120.974556
0
LWPOLYLINE
8
PDF_GEOMETRY
90
14
70
0
10
201.845333
20
121.567222
10
201.845333
20
121.450806
10
201.930000
20
121.217972
10
202.004083
20
121.090972
10
202.162833
20
120.974556
10
202.480333
20
120.974556
10
202.639083
20
121.090972
10
202.713167
20
121.217972
10
202.797833
20
121.450806
10
202.797833
20
121.683639
10
202.713167
20
121.916472
10
202.554417
20
122.276306
10
201.771250
20
123.451056
10
202.871917
20
123.451056
0
LWPOLYLINE
8
PDF_GEOMETRY
90
4
70
0
10
203.147083
20
121.450806
10
203.305833
20
121.334389
10
203.538667
20
120.974556
10
203.538667
20
123.451056
0
LWPOLYLINE
8
PDF_GEOMETRY
90
17
70
0
10
198.109417
20
123.927306
10
197.876583
20
124.054306
10
197.717833
20
124.403556
10
197.633167
20
124.996222
10
197.633167
20
125.345472
10
197.717833
20
125.938139
10
197.876583
20
126.287389
10
198.109417
20
126.403806
10
198.268167
20
126.403806
10
198.501000
20
126.287389
10
198.659750
20
125.938139
10
198.733833
20
125.345472
10
198.733833
20
124.996222
10
198.659750
20
124.403556
10
198.501000
20
124.054306
10
198.268167
20
123.927306
10
198.109417
20
123.927306
0
LWPOLYLINE
8
PDF_GEOMETRY
90
5
70
1
10
241.712750
20
66.851389
10
242.210167
20
70.851889
10
241.215333
20
70.851889
10
241.712750
20
66.851389
10
241.712750
20
66.851389
0
LWPOLYLINE
8
PDF_GEOMETRY
90
5
70
1
10
241.215333
20
112.857139
10
242.210167
20
112.857139
10
241.712750
20
116.857639
10
241.215333
20
112.857139
10
241.215333
20
112.857139
0
LWPOLYLINE
8
PDF_GEOMETRY
90
17
70
0
10
239.797167
20
93.934139
10
239.627833
20
94.272806
10
239.289167
20
94.495056
10
238.791750
20
94.600889
10
238.463667
20
94.600889
10
237.955667
20
94.495056
10
237.627583
20
94.272806
10
237.458250
20
93.934139
10
237.458250
20
93.711889
10
237.627583
20
93.383806
10
237.955667
20
93.161556
10
238.463667
20
93.045139
10
238.791750
20
93.045139
10
239.289167
20
93.161556
10
239.627833
20
93.383806
10
239.797167
20
93.711889
10
239.797167
20
93.934139
0
LWPOLYLINE
8
PDF_GEOMETRY
90
17
70
0
10
236.294083
20
90.822639
10
236.294083
20
91.933889
10
237.796917
20
92.050306
10
237.627583
20
91.933889
10
237.458250
20
91.605806
10
237.458250
20
91.267139
10
237.627583
20
90.939056
10
237.955667
20
90.716806
10
238.463667
20
90.600389
10
238.791750
20
90.600389
10
239.289167
20
90.716806
10
239.627833
20
90.939056
10
239.797167
20
91.267139
10
239.797167
20
91.605806
10
239.627833
20
91.933889
10
239.458500
20
92.050306
10
239.130417
20
92.156139
0
LWPOLYLINE
8
PDF_GEOMETRY
90
17
70
0
10
236.294083
20
89.266889
10
236.463417
20
89.605556
10
236.960833
20
89.827806
10
237.796917
20
89.933639
10
238.294333
20
89.933639
10
239.130417
20
89.827806
10
239.627833
20
89.605556
10
239.797167
20
89.266889
10
239.797167
20
89.044639
10
239.627833
20
88.716556
10
239.130417
20
88.494306
10
238.294333
20
88.377889
10
237.796917
20
88.377889
10
236.960833
20
88.494306
10
236.463417
20
88.716556
10
236.294083
20
89.044639
10
236.294083
20
89.266889
0
LWPOLYLINE
8
PDF_GEOMETRY
90
5
70
1
10
226.483333
20
66.851389
10
226.991333
20
70.851889
10
225.985917
20
70.851889
10
226.483333
20
66.851389
10
226.483333
20
66.851389
0
LWPOLYLINE
8
PDF_GEOMETRY
90
5
70
1
10
225.985917
20
72.852139
10
226.991333
20
72.852139
10
226.483333
20
76.852639
10
225.985917
20
72.852139
10
225.985917
20
72.852139
0
LWPOLYLINE
8
PDF_GEOMETRY
90
4
70
0
10
221.731417
20
73.624722
10
221.562083
20
73.402472
10
221.064667
20
73.074389
10
224.567750
20
73.074389
0
LWPOLYLINE
8
PDF_GEOMETRY
90
17
70
0
10
221.064667
20
71.179972
10
221.234000
20
71.518639
10
221.731417
20
71.740889
10
222.567500
20
71.846722
10
223.064917
20
71.846722
10
223.901000
20
71.740889
10
224.398417
20
71.518639
10
224.567750
20
71.179972
10
224.567750
20
70.957722
10
224.398417
20
70.629639
10
223.901000
20
70.407389
10
223.064917
20
70.290972
10
222.567500
20
70.290972
10
221.731417
20
70.407389
10
221.234000
20
70.629639
10
221.064667
20
70.957722
10
221.064667
20
71.179972
0
LWPOLYLINE
8
PDF_GEOMETRY
90
5
70
1
10
226.483333
20
76.852639
10
226.991333
20
80.853139
10
225.985917
20
80.853139
10
226.483333
20
76.852639
10
226.483333
20
76.852639
0
LWPOLYLINE
8
PDF_GEOMETRY
90
5
70
1
10
225.985917
20
92.854639
10
226.991333
20
92.854639
10
226.483333
20
96.855139
10
225.985917
20
92.854639
10
225.985917
20
92.854639
0
LWPOLYLINE
8
PDF_GEOMETRY
90
14
70
0
10
221.900750
20
88.515472
10
221.731417
20
88.515472
10
221.403333
20
88.409639
10
221.234000
20
88.293222
10
221.064667
20
88.070972
10
221.064667
20
87.626472
10
221.234000
20
87.404222
10
221.403333
20
87.298389
10
221.731417
20
87.181972
10
222.070083
20
87.181972
10
222.398167
20
87.298389
10
222.895583
20
87.520639
10
224.567750
20
88.631889
10
224.567750
20
87.076139
0
LWPOLYLINE
8
PDF_GEOMETRY
90
17
70
0
10
221.064667
20
85.742639
10
221.234000
20
86.070722
10
221.731417
20
86.292972
10
222.567500
20
86.409389
10
223.064917
20
86.409389
10
223.901000
20
86.292972
10
224.398417
20
86.070722
10
224.567750
20
85.742639
10
224.567750
20
85.520389
10
224.398417
20
85.181722
10
223.901000
20
84.959472
10
223.064917
20
84.853639
10
222.567500
20
84.853639
10
221.731417
20
84.959472
10
221.234000
20
85.181722
10
221.064667
20
85.520389
10
221.064667
20
85.742639
0
LWPOLYLINE
8
PDF_GEOMETRY
90
3
70
0
10
212.523917
20
111.851722
10
222.017167
20
114.994972
10
228.250750
20
114.994972
0
LWPOLYLINE
8
PDF_GEOMETRY
90
4
70
1
10
213.624583
20
111.692972
10
215.624833
20
112.645472
10
213.317667
20
112.645472
10
213.624583
20
111.692972
0
LWPOLYLINE
8
PDF_GEOMETRY
90
5
70
1
10
215.624833
20
112.645472
10
213.317667
20
112.645472
10
217.265250
20
113.418056
10
215.624833
20
112.645472
10
215.624833
20
112.645472
0
LWPOLYLINE
8
PDF_GEOMETRY
90
11
70
0
10
224.525417
20
113.068806
10
224.525417
20
109.576306
10
225.530833
20
109.576306
10
225.858917
20
109.735056
10
225.975333
20
109.904389
10
226.081167
20
110.243056
10
226.081167
20
110.571139
10
225.975333
20
110.909806
10
225.858917
20
111.068556
10
225.530833
20
111.237889
10
224.525417
20
111.237889
0
LWPOLYLINE
8
PDF_GEOMETRY
90
17
70
0
10
228.197833
20
109.576306
10
227.086583
20
109.576306
10
226.970167
20
111.068556
10
227.086583
20
110.909806
10
227.414667
20
110.740472
10
227.753333
20
110.740472
10
228.081417
20
110.909806
10
228.314250
20
111.237889
10
228.420083
20
111.735306
10
228.420083
20
112.073972
10
228.314250
20
112.571389
10
228.081417
20
112.910056
10
227.753333
20
113.068806
10
227.414667
20
113.068806
10
227.086583
20
112.910056
10
226.970167
20
112.740722
10
226.864333
20
112.402056
0
LWPOLYLINE
8
PDF_GEOMETRY
90
3
70
0
10
176.540583
20
84.821889
10
170.994917
20
80.726139
10
164.761333
20
80.726139
0
LWPOLYLINE
8
PDF_GEOMETRY
90
4
70
1
10
173.619583
20
82.049056
10
174.466250
20
82.853389
10
173.026917
20
82.853389
10
173.619583
20
82.049056
0
LWPOLYLINE
8
PDF_GEOMETRY
90
5
70
1
10
174.466250
20
82.853389
10
173.026917
20
82.853389
10
176.540583
20
84.821889
10
174.466250
20
82.853389
10
174.466250
20
82.853389
0
LWPOLYLINE
8
PDF_GEOMETRY
90
11
70
0
10
164.941250
20
78.810556
10
164.941250
20
75.307472
10
165.936083
20
75.307472
10
166.274750
20
75.476806
10
166.380583
20
75.646139
10
166.497000
20
75.974222
10
166.497000
20
76.312889
10
166.380583
20
76.640972
10
166.274750
20
76.810306
10
165.936083
20
76.979639
10
164.941250
20
76.979639
0
LWPOLYLINE
8
PDF_GEOMETRY
90
17
70
0
10
168.603083
20
75.307472
10
167.491833
20
75.307472
10
167.386000
20
76.810306
10
167.491833
20
76.640972
10
167.830500
20
76.471639
10
168.158583
20
76.471639
10
168.497250
20
76.640972
10
168.719500
20
76.979639
10
168.825333
20
77.477056
10
168.825333
20
77.805139
10
168.719500
20
78.313139
10
168.497250
20
78.641222
10
168.158583
20
78.810556
10
167.830500
20
78.810556
10
167.491833
20
78.641222
10
167.386000
20
78.471889
10
167.269583
20
78.143806
0
LWPOLYLINE
8
PDF_GEOMETRY
90
5
70
1
10
156.908500
20
86.853889
10
157.405917
20
90.854389
10
156.400500
20
90.854389
10
156.908500
20
86.853889
10
156.908500
20
86.853889
0
LWPOLYLINE
8
PDF_GEOMETRY
90
5
70
1
10
156.400500
20
112.857139
10
157.405917
20
112.857139
10
156.908500
20
116.857639
10
156.400500
20
112.857139
10
156.400500
20
112.857139
0
LWPOLYLINE
8
PDF_GEOMETRY
90
15
70
0
10
151.489833
20
103.406222
10
151.489833
20
102.178556
10
152.823333
20
102.855889
10
152.823333
20
102.517222
10
152.982083
20
102.294972
10
153.151417
20
102.178556
10
153.648833
20
102.072722
10
153.987500
20
102.072722
10
154.484917
20
102.178556
10
154.813000
20
102.400806
10
154.982333
20
102.739472
10
154.982333
20
103.078139
10
154.813000
20
103.406222
10
154.654250
20
103.522639
10
154.315583
20
103.628472
0
LWPOLYLINE
8
PDF_GEOMETRY
90
17
70
0
10
151.489833
20
100.739222
10
151.648583
20
101.067306
10
152.156583
20
101.289556
10
152.982083
20
101.405972
10
153.490083
20
101.405972
10
154.315583
20
101.289556
10
154.813000
20
101.067306
10
154.982333
20
100.739222
10
154.982333
20
100.516972
10
154.813000
20
100.178306
10
154.315583
20
99.956056
10
153.490083
20
99.850222
10
152.982083
20
99.850222
10
152.156583
20
99.956056
10
151.648583
20
100.178306
10
151.489833
20
100.516972
10
151.489833
20
100.739222
0
LWPOLYLINE
8
PDF_GEOMETRY
90
5
70
1
10
124.618750
20
66.851389
10
125.126750
20
70.851889
10
124.121333
20
70.851889
10
124.618750
20
66.851389
10
124.618750
20
66.851389
0
LWPOLYLINE
8
PDF_GEOMETRY
90
5
70
1
10
124.121333
20
87.859306
10
125.126750
20
87.859306
10
124.618750
20
91.859806
10
124.121333
20
87.859306
10
124.121333
20
87.859306
0
LWPOLYLINE
8
PDF_GEOMETRY
90
14
70
0
10
120.036167
20
81.022472
10
119.866833
20
81.022472
10
119.538750
20
80.906056
10
119.369417
20
80.800222
10
119.200083
20
80.577972
10
119.200083
20
80.133472
10
119.369417
20
79.911222
10
119.538750
20
79.794806
10
119.866833
20
79.688972
10
120.205500
20
79.688972
10
120.533583
20
79.794806
10
121.031000
20
80.017056
10
122.703167
20
81.128306
10
122.703167
20
79.572556
0
LWPOLYLINE
8
PDF_GEOMETRY
90
17
70
0
10
119.200083
20
77.572306
10
119.200083
20
78.683556
10
120.702917
20
78.799972
10
120.533583
20
78.683556
10
120.374833
20
78.355472
10
120.374833
20
78.016806
10
120.533583
20
77.688722
10
120.872250
20
77.455889
10
121.369667
20
77.350056
10
121.697750
20
77.350056
10
122.205750
20
77.455889
10
122.533833
20
77.688722
10
122.703167
20
78.016806
10
122.703167
20
78.355472
10
122.533833
20
78.683556
10
122.364500
20
78.799972
10
122.036417
20
78.905806
0
LWPOLYLINE
8
PDF_GEOMETRY
90
5
70
1
10
124.618750
20
91.859806
10
125.126750
20
95.849722
10
124.121333
20
95.849722
10
124.618750
20
91.859806
10
124.618750
20
91.859806
0
LWPOLYLINE
8
PDF_GEOMETRY
90
5
70
1
10
124.121333
20
107.851222
10
125.126750
20
107.851222
10
124.618750
20
111.851722
10
124.121333
20
107.851222
10
124.121333
20
107.851222
0
LWPOLYLINE
8
PDF_GEOMETRY
90
14
70
0
10
119.750417
20
107.184472
10
119.581083
20
107.184472
10
119.253000
20
107.078639
10
119.083667
20
106.962222
10
118.914333
20
106.739972
10
118.914333
20
106.295472
10
119.083667
20
106.073222
10
119.253000
20
105.967389
10
119.581083
20
105.850972
10
119.919750
20
105.850972
10
120.247833
20
105.967389
10
120.755833
20
106.189639
10
122.417417
20
107.300889
10
122.417417
20
105.745139
0
LWPOLYLINE
8
PDF_GEOMETRY
90
17
70
0
10
118.914333
20
104.411639
10
119.083667
20
104.739722
10
119.581083
20
104.961972
10
120.417167
20
105.078389
10
120.914583
20
105.078389
10
121.750667
20
104.961972
10
122.248083
20
104.739722
10
122.417417
20
104.411639
10
122.417417
20
104.189389
10
122.248083
20
103.850722
10
121.750667
20
103.628472
10
120.914583
20
103.522639
10
120.417167
20
103.522639
10
119.581083
20
103.628472
10
119.083667
20
103.850722
10
118.914333
20
104.189389
10
118.914333
20
104.411639
0
LWPOLYLINE
8
PDF_GEOMETRY
90
17
70
0
10
117.168083
20
100.887389
10
117.284500
20
101.120222
10
117.644333
20
101.278972
10
118.226417
20
101.363639
10
118.586250
20
101.363639
10
119.178917
20
101.278972
10
119.528167
20
101.120222
10
119.644583
20
100.887389
10
119.644583
20
100.728639
10
119.528167
20
100.495806
10
119.178917
20
100.337056
10
118.586250
20
100.262972
10
118.226417
20
100.262972
10
117.644333
20
100.337056
10
117.284500
20
100.495806
10
117.168083
20
100.728639
10
117.168083
20
100.887389
0
LWPOLYLINE
8
PDF_GEOMETRY
90
4
70
0
10
119.411750
20
99.712639
10
119.528167
20
99.786722
10
119.644583
20
99.712639
10
119.528167
20
99.627972
0
LWPOLYLINE
8
PDF_GEOMETRY
90
17
70
0
10
117.168083
20
98.527306
10
117.284500
20
98.760139
10
117.644333
20
98.918889
10
118.226417
20
99.003556
10
118.586250
20
99.003556
10
119.178917
20
98.918889
10
119.528167
20
98.760139
10
119.644583
20
98.527306
10
119.644583
20
98.368556
10
119.528167
20
98.135722
10
119.178917
20
97.976972
10
118.586250
20
97.902889
10
118.226417
20
97.902889
10
117.644333
20
97.976972
10
117.284500
20
98.135722
10
117.168083
20
98.368556
10
117.168083
20
98.527306
0
LWPOLYLINE
8
PDF_GEOMETRY
90
3
70
0
10
117.168083
20
97.426639
10
117.168083
20
96.325972
10
119.644583
20
97.109139
0
LWPOLYLINE
8
PDF_GEOMETRY
90
17
70
0
10
120.120833
20
100.887389
10
120.247833
20
101.120222
10
120.597083
20
101.278972
10
121.189750
20
101.363639
10
121.539000
20
101.363639
10
122.131667
20
101.278972
10
122.480917
20
101.120222
10
122.597333
20
100.887389
10
122.597333
20
100.728639
10
122.480917
20
100.495806
10
122.131667
20
100.337056
10
121.539000
20
100.262972
10
121.189750
20
100.262972
10
120.597083
20
100.337056
10
120.247833
20
100.495806
10
120.120833
20
100.728639
10
120.120833
20
100.887389
0
LWPOLYLINE
8
PDF_GEOMETRY
90
4
70
0
10
122.364500
20
99.712639
10
122.480917
20
99.786722
10
122.597333
20
99.712639
10
122.480917
20
99.627972
0
LWPOLYLINE
8
PDF_GEOMETRY
90
14
70
0
10
120.713500
20
98.918889
10
120.597083
20
98.918889
10
120.364250
20
98.844806
10
120.247833
20
98.760139
10
120.120833
20
98.611972
10
120.120833
20
98.294472
10
120.247833
20
98.135722
10
120.364250
20
98.061639
10
120.597083
20
97.976972
10
120.829917
20
97.976972
10
121.062750
20
98.061639
10
121.422583
20
98.209806
10
122.597333
20
99.003556
10
122.597333
20
97.902889
0
LWPOLYLINE
8
PDF_GEOMETRY
90
4
70
0
10
120.597083
20
97.426639
10
120.480667
20
97.267889
10
120.120833
20
97.035056
10
122.597333
20
97.035056
0
LWPOLYLINE
8
PDF_GEOMETRY
90
6
70
0
10
174.519167
20
197.047556
10
174.593250
20
196.899389
10
174.625000
20
196.761806
10
174.614417
20
196.592472
10
174.561500
20
196.497222
10
174.466250
20
196.444306
0
LWPOLYLINE
8
PDF_GEOMETRY
90
4
70
0
10
174.466250
20
196.444306
10
174.296917
20
196.444306
10
174.159333
20
196.465472
10
174.011167
20
196.539556
0
LWPOLYLINE
8
PDF_GEOMETRY
90
8
70
0
10
173.482000
20
197.428556
10
173.556083
20
197.502639
10
173.630167
20
197.576722
10
173.778333
20
197.619056
10
173.937083
20
197.555556
10
174.117000
20
197.460306
10
174.296917
20
197.312139
10
174.402750
20
197.206306
0
LWPOLYLINE
8
PDF_GEOMETRY
90
6
70
0
10
173.852417
20
196.655972
10
173.746583
20
196.772389
10
173.598417
20
196.952306
10
173.503167
20
197.121639
10
173.450250
20
197.290972
10
173.482000
20
197.428556
0
LWPOLYLINE
8
PDF_GEOMETRY
90
3
70
0
10
176.117250
20
196.147972
10
177.217917
20
197.238056
10
173.915917
20
198.899639
0
LWPOLYLINE
8
PDF_GEOMETRY
90
7
70
0
10
177.355500
20
198.201139
10
178.043417
20
198.063556
10
178.593750
20
198.613889
10
178.456167
20
199.301806
10
178.043417
20
199.714556
10
177.355500
20
199.852139
10
177.080333
20
199.576972
0
LWPOLYLINE
8
PDF_GEOMETRY
90
6
70
0
10
177.355500
20
199.852139
10
177.228500
20
200.540056
10
176.815750
20
200.952806
10
176.127833
20
201.090389
10
175.577500
20
200.550639
10
175.715083
20
199.862722
0
LWPOLYLINE
8
PDF_GEOMETRY
90
9
70
0
10
180.530500
20
202.180472
10
180.668083
20
201.492556
10
182.308500
20
199.841556
10
182.996417
20
199.703972
10
183.271583
20
199.979139
10
183.134000
20
200.667056
10
181.493583
20
202.318056
10
180.805667
20
202.455639
10
180.530500
20
202.180472
0
LWPOLYLINE
8
PDF_GEOMETRY
90
9
70
0
10
182.594250
20
203.418722
10
182.456667
20
204.106639
10
183.007000
20
204.656972
10
183.694917
20
204.519389
10
184.520417
20
203.693889
10
184.658000
20
203.005972
10
183.832500
20
202.180472
10
184.658000
20
201.354972
10
185.758667
20
202.445056
0
LWPOLYLINE
8
PDF_GEOMETRY
90
9
70
0
10
175.588083
20
203.842056
10
175.715083
20
203.154139
10
177.366083
20
201.503139
10
178.054000
20
201.365556
10
178.329167
20
201.640722
10
178.191583
20
202.328639
10
176.551167
20
203.979639
10
175.863250
20
204.117222
10
175.588083
20
203.842056
0
LWPOLYLINE
8
PDF_GEOMETRY
90
5
70
1
10
109.283500
20
137.812639
10
108.341583
20
138.754556
10
111.654167
20
141.104056
10
109.283500
20
137.812639
10
109.283500
20
137.812639
0
LWPOLYLINE
8
PDF_GEOMETRY
90
5
70
1
10
166.698083
20
194.952056
10
165.756167
20
195.893972
10
163.396083
20
192.602556
10
166.698083
20
194.952056
10
166.698083
20
194.952056
0
LWPOLYLINE
8
PDF_GEOMETRY
90
4
70
1
10
163.438417
20
157.656389
10
161.713333
20
158.524222
10
159.501417
20
158.524222
10
163.438417
20
157.656389
0
LWPOLYLINE
8
PDF_GEOMETRY
90
5
70
1
10
161.713333
20
158.524222
10
159.501417
20
158.524222
10
159.829500
20
159.466139
10
161.713333
20
158.524222
10
161.713333
20
158.524222
0
LWPOLYLINE
8
PDF_GEOMETRY
90
4
70
1
10
115.210167
20
174.240472
10
115.538250
20
175.182389
10
113.336917
20
175.182389
10
115.210167
20
174.240472
0
LWPOLYLINE
8
PDF_GEOMETRY
90
5
70
1
10
115.538250
20
175.182389
10
113.336917
20
175.182389
10
111.601250
20
176.050222
10
115.538250
20
175.182389
10
115.538250
20
175.182389
0
LWPOLYLINE
8
PDF_GEOMETRY
90
17
70
0
10
147.129500
20
161.106556
10
146.759083
20
161.053639
10
146.431000
20
160.820806
10
146.166417
20
160.386889
10
146.050000
20
160.069389
10
145.986500
20
159.561389
10
146.081750
20
159.169806
10
146.346333
20
158.905222
10
146.558000
20
158.831139
10
146.928417
20
158.873472
10
147.245917
20
159.116889
10
147.521083
20
159.550806
10
147.626917
20
159.868306
10
147.690417
20
160.376306
10
147.595167
20
160.757306
10
147.330583
20
161.032472
10
147.129500
20
161.106556
0
LWPOLYLINE
8
PDF_GEOMETRY
90
17
70
0
10
148.886333
20
156.767389
10
147.838583
20
157.137806
10
148.240750
20
158.587722
10
148.283083
20
158.397222
10
148.547667
20
158.122056
10
148.854583
20
158.016222
10
149.225000
20
158.058556
10
149.553083
20
158.301972
10
149.817667
20
158.735889
10
149.934083
20
159.042806
10
149.997583
20
159.550806
10
149.902333
20
159.942389
10
149.637750
20
160.206972
10
149.320250
20
160.323389
10
148.960417
20
160.281056
10
148.791083
20
160.154056
10
148.579417
20
159.878889
0
LWPOLYLINE
8
PDF_GEOMETRY
90
17
70
0
10
150.981833
20
156.015972
10
149.934083
20
156.396972
10
150.336250
20
157.846889
10
150.378583
20
157.645806
10
150.643167
20
157.381222
10
150.950083
20
157.264806
10
151.320500
20
157.317722
10
151.648583
20
157.550556
10
151.913167
20
157.984472
10
152.029583
20
158.301972
10
152.093083
20
158.809972
10
151.997833
20
159.201556
10
151.733250
20
159.466139
10
151.415750
20
159.582556
10
151.045333
20
159.529639
10
150.886583
20
159.413222
10
150.674917
20
159.138056
0
LWPOLYLINE
8
PDF_GEOMETRY
90
17
70
0
10
152.622250
20
153.581806
10
152.442333
20
153.772306
10
152.410583
20
154.163889
10
152.537583
20
154.745972
10
152.654000
20
155.074056
10
152.918583
20
155.603222
10
153.193750
20
155.888972
10
153.447750
20
155.920722
10
153.595917
20
155.867806
10
153.775833
20
155.677306
10
153.807583
20
155.285722
10
153.691167
20
154.703639
10
153.574750
20
154.375556
10
153.299583
20
153.846389
10
153.035000
20
153.560639
10
152.770417
20
153.528889
10
152.622250
20
153.581806
0
LWPOLYLINE
8
PDF_GEOMETRY
90
4
70
0
10
154.484917
20
155.296306
10
154.442583
20
155.433889
10
154.559000
20
155.518556
10
154.590750
20
155.380972
0
LWPOLYLINE
8
PDF_GEOMETRY
90
17
70
0
10
155.289250
20
152.639889
10
154.548417
20
152.904472
10
154.834167
20
153.931056
10
154.865917
20
153.793472
10
155.045833
20
153.602972
10
155.268083
20
153.518306
10
155.532667
20
153.550056
10
155.754917
20
153.719389
10
155.945417
20
154.026306
10
156.030083
20
154.248556
10
156.072417
20
154.608389
10
155.998333
20
154.883556
10
155.818417
20
155.074056
10
155.596167
20
155.158722
10
155.331583
20
155.126972
10
155.225750
20
155.042306
10
155.067000
20
154.841222
0
LWPOLYLINE
8
PDF_GEOMETRY
90
17
70
0
10
152.982083
20
156.587472
10
152.802167
20
156.777972
10
152.770417
20
157.169556
10
152.897417
20
157.751639
10
153.013833
20
158.079722
10
153.278417
20
158.608889
10
153.553583
20
158.894639
10
153.807583
20
158.926389
10
153.955750
20
158.873472
10
154.146250
20
158.682972
10
154.167417
20
158.291389
10
154.051000
20
157.709306
10
153.934583
20
157.381222
10
153.659417
20
156.852056
10
153.394833
20
156.566306
10
153.130250
20
156.534556
10
152.982083
20
156.587472
0
LWPOLYLINE
8
PDF_GEOMETRY
90
4
70
1
10
131.519083
20
212.721472
10
135.519583
20
213.229472
10
131.519083
20
213.229472
10
131.519083
20
212.721472
0
LWPOLYLINE
8
PDF_GEOMETRY
90
5
70
1
10
135.519583
20
213.229472
10
131.519083
20
213.229472
10
131.519083
20
213.726889
10
135.519583
20
213.229472
10
135.519583
20
213.229472
0
LWPOLYLINE
8
PDF_GEOMETRY
90
4
70
1
10
143.520583
20
212.721472
10
143.520583
20
213.229472
10
139.520083
20
213.229472
10
143.520583
20
212.721472
0
LWPOLYLINE
8
PDF_GEOMETRY
90
5
70
1
10
143.520583
20
213.229472
10
139.520083
20
213.229472
10
143.520583
20
213.726889
10
143.520583
20
213.229472
10
143.520583
20
213.229472
0
LWPOLYLINE
8
PDF_GEOMETRY
90
4
70
0
10
145.129250
20
211.303306
10
145.129250
20
207.810806
10
144.018000
20
210.139139
10
145.690167
20
210.139139
0
LWPOLYLINE
8
PDF_GEOMETRY
90
4
70
1
10
133.519333
20
200.127306
10
137.519833
20
200.624722
10
133.519333
20
200.624722
10
133.519333
20
200.127306
0
LWPOLYLINE
8
PDF_GEOMETRY
90
5
70
1
10
137.519833
20
200.624722
10
133.519333
20
200.624722
10
133.519333
20
201.132722
10
137.519833
20
200.624722
10
137.519833
20
200.624722
0
LWPOLYLINE
8
PDF_GEOMETRY
90
4
70
1
10
143.520583
20
200.127306
10
143.520583
20
200.624722
10
139.520083
20
200.624722
10
143.520583
20
200.127306
0
LWPOLYLINE
8
PDF_GEOMETRY
90
5
70
1
10
143.520583
20
200.624722
10
139.520083
20
200.624722
10
143.520583
20
201.132722
10
143.520583
20
200.624722
10
143.520583
20
200.624722
0
LWPOLYLINE
8
PDF_GEOMETRY
90
14
70
0
10
144.134417
20
196.042139
10
144.134417
20
195.872806
10
144.240250
20
195.544722
10
144.356667
20
195.375389
10
144.578917
20
195.206056
10
145.023417
20
195.206056
10
145.245667
20
195.375389
10
145.351500
20
195.544722
10
145.467917
20
195.872806
10
145.467917
20
196.211472
10
145.351500
20
196.539556
10
145.129250
20
197.036972
10
144.018000
20
198.709139
10
145.573750
20
198.709139
0
LWPOLYLINE
8
PDF_GEOMETRY
90
4
70
1
10
141.520333
20
218.013139
10
141.520333
20
218.510556
10
137.519833
20
218.510556
10
141.520333
20
218.013139
0
LWPOLYLINE
8
PDF_GEOMETRY
90
5
70
1
10
141.520333
20
218.510556
10
137.519833
20
218.510556
10
141.520333
20
219.007972
10
141.520333
20
218.510556
10
141.520333
20
218.510556
0
LWPOLYLINE
8
PDF_GEOMETRY
90
4
70
1
10
193.516250
20
218.013139
10
197.516750
20
218.510556
10
193.516250
20
218.510556
10
193.516250
20
218.013139
0
LWPOLYLINE
8
PDF_GEOMETRY
90
5
70
1
10
197.516750
20
218.510556
10
193.516250
20
218.510556
10
193.516250
20
219.007972
10
197.516750
20
218.510556
10
197.516750
20
218.510556
0
LWPOLYLINE
8
PDF_GEOMETRY
90
23
70
0
10
164.094583
20
213.303556
10
163.988750
20
212.975472
10
163.650083
20
212.806139
10
163.427833
20
212.806139
10
163.099750
20
212.975472
10
162.877500
20
213.472889
10
162.761083
20
214.308972
10
162.761083
20
215.134472
10
162.877500
20
215.801222
10
163.099750
20
216.139889
10
163.427833
20
216.309222
10
163.544250
20
216.309222
10
163.872333
20
216.139889
10
164.094583
20
215.801222
10
164.211000
20
215.303806
10
164.211000
20
215.134472
10
164.094583
20
214.637056
10
163.872333
20
214.308972
10
163.544250
20
214.139639
10
163.427833
20
214.139639
10
163.099750
20
214.308972
10
162.877500
20
214.637056
10
162.761083
20
215.134472
0
LWPOLYLINE
8
PDF_GEOMETRY
90
17
70
0
10
165.385750
20
212.806139
10
165.047083
20
212.975472
10
164.824833
20
213.472889
10
164.708417
20
214.308972
10
164.708417
20
214.806389
10
164.824833
20
215.642472
10
165.047083
20
216.139889
10
165.385750
20
216.309222
10
165.608000
20
216.309222
10
165.936083
20
216.139889
10
166.158333
20
215.642472
10
166.274750
20
214.806389
10
166.274750
20
214.308972
10
166.158333
20
213.472889
10
165.936083
20
212.975472
10
165.608000
20
212.806139
10
165.385750
20
212.806139
0
LWPOLYLINE
8
PDF_GEOMETRY
90
17
70
0
10
168.507833
20
211.059889
10
168.275000
20
211.176306
10
168.116250
20
211.525556
10
168.042167
20
212.118222
10
168.042167
20
212.467472
10
168.116250
20
213.060139
10
168.275000
20
213.419972
10
168.507833
20
213.536389
10
168.666583
20
213.536389
10
168.910000
20
213.419972
10
169.058167
20
213.060139
10
169.142833
20
212.467472
10
169.142833
20
212.118222
10
169.058167
20
211.525556
10
168.910000
20
211.176306
10
168.666583
20
211.059889
10
168.507833
20
211.059889
0
LWPOLYLINE
8
PDF_GEOMETRY
90
17
70
0
10
168.507833
20
214.012639
10
168.275000
20
214.129056
10
168.116250
20
214.478306
10
168.042167
20
215.070972
10
168.042167
20
215.430806
10
168.116250
20
216.012889
10
168.275000
20
216.372722
10
168.507833
20
216.489139
10
168.666583
20
216.489139
10
168.910000
20
216.372722
10
169.058167
20
216.012889
10
169.142833
20
215.430806
10
169.142833
20
215.070972
10
169.058167
20
214.478306
10
168.910000
20
214.129056
10
168.666583
20
214.012639
10
168.507833
20
214.012639
0
LWPOLYLINE
8
PDF_GEOMETRY
90
4
70
0
10
169.502667
20
216.256306
10
169.418000
20
216.372722
10
169.502667
20
216.489139
10
169.576750
20
216.372722
0
LWPOLYLINE
8
PDF_GEOMETRY
90
14
70
0
10
170.878500
20
214.605306
10
170.878500
20
214.478306
10
170.952583
20
214.245472
10
171.037250
20
214.129056
10
171.185417
20
214.012639
10
171.502917
20
214.012639
10
171.661667
20
214.129056
10
171.735750
20
214.245472
10
171.820417
20
214.478306
10
171.820417
20
214.721722
10
171.735750
20
214.954556
10
171.587583
20
215.303806
10
170.793833
20
216.489139
10
171.894500
20
216.489139
0
LWPOLYLINE
8
PDF_GEOMETRY
90
9
70
0
10
175.004057
20
182.616705
10
175.653437
20
183.505608
10
176.337042
20
184.366779
10
177.053952
20
185.199274
10
177.803250
20
186.002146
10
178.584018
20
186.774449
10
179.395335
20
187.515239
10
180.236285
20
188.223569
10
181.105948
20
188.898492
0
LWPOLYLINE
8
PDF_GEOMETRY
90
9
70
0
10
188.551778
20
192.833508
10
189.640542
20
193.184178
10
190.741514
20
193.488886
10
191.853235
20
193.747387
10
192.974247
20
193.959435
10
194.103092
20
194.124788
10
195.238312
20
194.243199
10
196.378448
20
194.314426
10
197.522042
20
194.338222
0
LWPOLYLINE
8
PDF_GEOMETRY
90
4
70
1
10
175.006000
20
182.622472
10
177.895250
20
185.374139
10
176.731083
20
185.374139
10
175.006000
20
182.622472
0
LWPOLYLINE
8
PDF_GEOMETRY
90
5
70
1
10
177.895250
20
185.374139
10
176.731083
20
185.374139
10
177.165000
20
186.062056
10
177.895250
20
185.374139
10
177.895250
20
185.374139
0
LWPOLYLINE
8
PDF_GEOMETRY
90
4
70
1
10
193.611500
20
193.555056
10
197.516750
20
194.338222
10
193.495083
20
194.338222
10
193.611500
20
193.555056
0
LWPOLYLINE
8
PDF_GEOMETRY
90
5
70
1
10
197.516750
20
194.338222
10
193.495083
20
194.338222
10
193.463333
20
194.539306
10
197.516750
20
194.338222
10
197.516750
20
194.338222
0
LWPOLYLINE
8
PDF_GEOMETRY
90
17
70
0
10
182.615417
20
188.834889
10
181.504167
20
188.834889
10
181.387750
20
190.337722
10
181.504167
20
190.168389
10
181.832250
20
189.999056
10
182.170917
20
189.999056
10
182.499000
20
190.168389
10
182.721250
20
190.507056
10
182.837667
20
191.004472
10
182.837667
20
191.332556
10
182.721250
20
191.840556
10
182.499000
20
192.168639
10
182.170917
20
192.337972
10
181.832250
20
192.337972
10
181.504167
20
192.168639
10
181.387750
20
191.999306
10
181.281917
20
191.671222
0
LWPOLYLINE
8
PDF_GEOMETRY
90
17
70
0
10
184.837917
20
188.834889
10
183.726667
20
188.834889
10
183.610250
20
190.337722
10
183.726667
20
190.168389
10
184.054750
20
189.999056
10
184.393417
20
189.999056
10
184.721500
20
190.168389
10
184.943750
20
190.507056
10
185.060167
20
191.004472
10
185.060167
20
191.332556
10
184.943750
20
191.840556
10
184.721500
20
192.168639
10
184.393417
20
192.337972
10
184.054750
20
192.337972
10
183.726667
20
192.168639
10
183.610250
20
191.999306
10
183.504417
20
191.671222
0
LWPOLYLINE
8
PDF_GEOMETRY
90
33
70
0
10
186.182000
20
189.168264
10
186.177378
20
189.101079
10
186.164120
20
189.038501
10
186.143142
20
188.981873
10
186.115358
20
188.932534
10
186.081683
20
188.891825
10
186.043032
20
188.861088
10
186.000319
20
188.841662
10
185.954458
20
188.834889
10
185.908598
20
188.841662
10
185.865885
20
188.861088
10
185.827234
20
188.891825
10
185.793559
20
188.932534
10
185.765775
20
188.981873
10
185.744797
20
189.038501
10
185.731539
20
189.101079
10
185.726917
20
189.168264
10
185.731539
20
189.235449
10
185.744797
20
189.298026
10
185.765775
20
189.354655
10
185.793559
20
189.403994
10
185.827234
20
189.444702
10
185.865885
20
189.475440
10
185.908598
20
189.494866
10
185.954458
20
189.501639
10
186.000319
20
189.494866
10
186.043032
20
189.475440
10
186.081683
20
189.444702
10
186.115358
20
189.403994
10
186.143142
20
189.354655
10
186.164120
20
189.298026
10
186.177378
20
189.235449
10
186.182000
20
189.168264
0
LWPOLYLINE
8
PDF_GEOMETRY
90
4
70
1
10
201.517250
20
140.077472
10
197.516750
20
139.569472
10
197.516750
20
140.077472
10
201.517250
20
140.077472
0
LWPOLYLINE
8
PDF_GEOMETRY
90
4
70
1
10
197.516750
20
139.569472
10
197.516750
20
140.077472
10
193.516250
20
140.077472
10
197.516750
20
139.569472
0
LWPOLYLINE
8
PDF_GEOMETRY
90
5
70
1
10
197.516750
20
140.077472
10
193.516250
20
140.077472
10
197.516750
20
140.574889
10
197.516750
20
140.077472
10
197.516750
20
140.077472
0
LWPOLYLINE
8
PDF_GEOMETRY
90
5
70
1
10
197.516750
20
140.077472
10
201.517250
20
140.077472
10
197.516750
20
140.574889
10
197.516750
20
140.077472
10
197.516750
20
140.077472
0
LWPOLYLINE
8
PDF_GEOMETRY
90
5
70
0
10
195.749333
20
138.151306
10
195.749333
20
134.658806
10
196.638333
20
138.151306
10
197.527333
20
134.658806
10
197.527333
20
138.151306
0
LWPOLYLINE
8
PDF_GEOMETRY
90
29
70
0
10
198.966667
20
134.658806
10
198.638583
20
134.817556
10
198.522167
20
135.156222
10
198.522167
20
135.484306
10
198.638583
20
135.822972
10
198.860833
20
135.992306
10
199.305333
20
136.151056
10
199.633417
20
136.320389
10
199.855667
20
136.659056
10
199.972083
20
136.987139
10
199.972083
20
137.484556
10
199.855667
20
137.823222
10
199.749833
20
137.981972
10
199.411167
20
138.151306
10
198.966667
20
138.151306
10
198.638583
20
137.981972
10
198.522167
20
137.823222
10
198.416333
20
137.484556
10
198.416333
20
136.987139
10
198.522167
20
136.659056
10
198.744417
20
136.320389
10
199.083083
20
136.151056
10
199.527583
20
135.992306
10
199.749833
20
135.822972
10
199.855667
20
135.484306
10
199.855667
20
135.156222
10
199.749833
20
134.817556
10
199.411167
20
134.658806
10
198.966667
20
134.658806
0
LWPOLYLINE
8
PDF_GEOMETRY
90
4
70
0
10
236.675083
20
55.855306
10
230.325083
20
66.851389
10
227.435833
20
61.856056
10
233.214333
20
61.856056
0
LWPOLYLINE
8
PDF_GEOMETRY
90
15
70
0
10
227.234750
20
56.659639
10
228.462417
20
56.659639
10
227.795667
20
57.993139
10
228.123750
20
57.993139
10
228.346000
20
58.162472
10
228.462417
20
58.321222
10
228.568250
20
58.829222
10
228.568250
20
59.157306
10
228.462417
20
59.654722
10
228.240167
20
59.993389
10
227.901500
20
60.162722
10
227.573417
20
60.162722
10
227.234750
20
59.993389
10
227.128917
20
59.824056
10
227.012500
20
59.495972
0
LWPOLYLINE
8
PDF_GEOMETRY
90
4
70
0
10
229.351417
20
59.824056
10
229.235000
20
59.993389
10
229.351417
20
60.162722
10
229.457250
20
59.993389
0
LWPOLYLINE
8
PDF_GEOMETRY
90
14
70
0
10
230.462667
20
57.495722
10
230.462667
20
57.326389
10
230.579083
20
56.987722
10
230.684917
20
56.828972
10
230.907167
20
56.659639
10
231.351667
20
56.659639
10
231.573917
20
56.828972
10
231.690333
20
56.987722
10
231.796167
20
57.326389
10
231.796167
20
57.654472
10
231.690333
20
57.993139
10
231.468083
20
58.490556
10
230.346250
20
60.162722
10
231.912583
20
60.162722
0
LWPOLYLINE
8
PDF_GEOMETRY
90
4
70
0
10
140.610167
20
80.853139
10
134.249583
20
91.859806
10
131.370917
20
86.853889
10
137.138833
20
86.853889
0
LWPOLYLINE
8
PDF_GEOMETRY
90
15
70
0
10
131.169833
20
81.657472
10
132.386917
20
81.657472
10
131.720167
20
82.990972
10
132.058833
20
82.990972
10
132.281083
20
83.160306
10
132.386917
20
83.329639
10
132.503333
20
83.827056
10
132.503333
20
84.155139
10
132.386917
20
84.652556
10
132.164667
20
84.991222
10
131.836583
20
85.160556
10
131.497917
20
85.160556
10
131.169833
20
84.991222
10
131.053417
20
84.821889
10
130.947583
20
84.493806
0
LWPOLYLINE
8
PDF_GEOMETRY
90
4
70
0
10
133.275917
20
84.821889
10
133.170083
20
84.991222
10
133.275917
20
85.160556
10
133.392333
20
84.991222
0
LWPOLYLINE
8
PDF_GEOMETRY
90
14
70
0
10
134.387167
20
82.493556
10
134.387167
20
82.324222
10
134.503583
20
81.996139
10
134.609417
20
81.826806
10
134.831667
20
81.657472
10
135.276167
20
81.657472
10
135.498417
20
81.826806
10
135.614833
20
81.996139
10
135.720667
20
82.324222
10
135.720667
20
82.662889
10
135.614833
20
82.990972
10
135.392583
20
83.488389
10
134.281333
20
85.160556
10
135.837083
20
85.160556
0
LWPOLYLINE
8
PDF_GEOMETRY
90
4
70
0
10
127.296333
20
122.858389
10
133.646333
20
111.851722
10
136.535583
20
116.857639
10
130.757083
20
116.857639
0
LWPOLYLINE
8
PDF_GEOMETRY
90
15
70
0
10
131.677833
20
117.259806
10
132.905500
20
117.259806
10
132.238750
20
118.593306
10
132.566833
20
118.593306
10
132.789083
20
118.752056
10
132.905500
20
118.921389
10
133.011333
20
119.418806
10
133.011333
20
119.757472
10
132.905500
20
120.254889
10
132.683250
20
120.593556
10
132.344583
20
120.752306
10
132.016500
20
120.752306
10
131.677833
20
120.593556
10
131.572000
20
120.424222
10
131.455583
20
120.085556
0
LWPOLYLINE
8
PDF_GEOMETRY
90
4
70
0
10
133.794500
20
120.424222
10
133.678083
20
120.593556
10
133.794500
20
120.752306
10
133.900333
20
120.593556
0
LWPOLYLINE
8
PDF_GEOMETRY
90
14
70
0
10
134.905750
20
118.085306
10
134.905750
20
117.926556
10
135.011583
20
117.587889
10
135.128000
20
117.418556
10
135.350250
20
117.259806
10
135.794750
20
117.259806
10
136.017000
20
117.418556
10
136.122833
20
117.587889
10
136.239250
20
117.926556
10
136.239250
20
118.254639
10
136.122833
20
118.593306
10
135.900583
20
119.090722
10
134.789333
20
120.752306
10
136.345083
20
120.752306
0
LWPOLYLINE
8
PDF_GEOMETRY
90
4
70
0
10
150.114000
20
179.256972
10
148.875750
20
191.893472
10
144.176750
20
188.538556
10
149.436667
20
186.157306
0
LWPOLYLINE
8
PDF_GEOMETRY
90
15
70
0
10
141.848417
20
183.881889
10
142.970250
20
183.384472
10
142.906750
20
184.866139
10
143.213667
20
184.728556
10
143.488833
20
184.792056
10
143.658167
20
184.897889
10
143.965083
20
185.310639
10
144.102667
20
185.606972
10
144.208500
20
186.114972
10
144.145000
20
186.506556
10
143.901583
20
186.802889
10
143.605250
20
186.940472
10
143.224250
20
186.919306
10
143.054917
20
186.813472
10
142.822083
20
186.559472
0
LWPOLYLINE
8
PDF_GEOMETRY
90
4
70
0
10
145.086917
20
185.892722
10
145.055167
20
186.093806
10
145.224500
20
186.199639
10
145.256250
20
185.998556
0
LWPOLYLINE
8
PDF_GEOMETRY
90
14
70
0
10
145.129250
20
183.310389
10
145.065750
20
183.162222
10
145.023417
20
182.812972
10
145.055167
20
182.611889
10
145.192750
20
182.368472
10
145.594917
20
182.188556
10
145.870083
20
182.252056
10
146.039417
20
182.357889
10
146.282833
20
182.611889
10
146.420417
20
182.918806
10
146.452167
20
183.268056
10
146.452167
20
183.807806
10
146.134667
20
185.786889
10
147.552833
20
185.141306
0
LWPOLYLINE
8
PDF_GEOMETRY
90
4
70
0
10
128.524000
20
143.146639
10
139.520083
20
149.496639
10
134.524750
20
152.375306
10
134.524750
20
146.607389
0
LWPOLYLINE
8
PDF_GEOMETRY
90
23
70
0
10
129.825750
20
151.465139
10
129.487083
20
151.581556
10
129.328333
20
151.909639
10
129.328333
20
152.131889
10
129.487083
20
152.470556
10
129.995083
20
152.692806
10
130.820583
20
152.798639
10
131.656667
20
152.798639
10
132.323417
20
152.692806
10
132.662083
20
152.470556
10
132.820833
20
152.131889
10
132.820833
20
152.026056
10
132.662083
20
151.687389
10
132.323417
20
151.465139
10
131.826000
20
151.359306
10
131.656667
20
151.359306
10
131.159250
20
151.465139
10
130.820583
20
151.687389
10
130.661833
20
152.026056
10
130.661833
20
152.131889
10
130.820583
20
152.470556
10
131.159250
20
152.692806
10
131.656667
20
152.798639
0
LWPOLYLINE
8
PDF_GEOMETRY
90
4
70
0
10
132.492750
20
150.470306
10
132.662083
20
150.576139
10
132.820833
20
150.470306
10
132.662083
20
150.353889
0
LWPOLYLINE
8
PDF_GEOMETRY
90
15
70
0
10
129.328333
20
149.242639
10
129.328333
20
148.025556
10
130.661833
20
148.692306
10
130.661833
20
148.353639
10
130.820583
20
148.131389
10
130.989917
20
148.025556
10
131.487333
20
147.909139
10
131.826000
20
147.909139
10
132.323417
20
148.025556
10
132.662083
20
148.247806
10
132.820833
20
148.575889
10
132.820833
20
148.914556
10
132.662083
20
149.242639
10
132.492750
20
149.359056
10
132.154083
20
149.464889
0
LWPOLYLINE
8
PDF_GEOMETRY
90
4
70
0
10
149.352000
20
143.390056
10
161.342917
20
139.199056
10
160.274000
20
144.871722
10
155.892500
20
141.104056
0
LWPOLYLINE
8
PDF_GEOMETRY
90
23
70
0
10
156.845000
20
143.114889
10
156.982583
20
142.786806
10
156.834417
20
142.448139
10
156.665083
20
142.299972
10
156.305250
20
142.215306
10
155.807833
20
142.448139
10
155.183417
20
142.998472
10
154.643667
20
143.633472
10
154.283833
20
144.215556
10
154.241500
20
144.607139
10
154.379083
20
144.956389
10
154.463750
20
145.030472
10
154.823583
20
145.115139
10
155.215167
20
145.009306
10
155.627917
20
144.702389
10
155.733750
20
144.575389
10
155.977167
20
144.130889
10
156.030083
20
143.728722
10
155.881917
20
143.379472
10
155.797250
20
143.315972
10
155.437417
20
143.220722
10
155.045833
20
143.326556
10
154.643667
20
143.633472
0
LWPOLYLINE
8
PDF_GEOMETRY
90
4
70
0
10
155.860750
20
145.792472
10
155.670250
20
145.845389
10
155.649083
20
146.046472
10
155.839583
20
145.982972
0
LWPOLYLINE
8
PDF_GEOMETRY
90
15
70
0
10
158.855833
20
144.183806
10
159.787167
20
144.988139
10
158.411333
20
145.559639
10
158.665333
20
145.781889
10
158.718250
20
146.046472
10
158.697083
20
146.247556
10
158.453667
20
146.702639
10
158.231417
20
146.956639
10
157.829250
20
147.263556
10
157.437667
20
147.369389
10
157.077833
20
147.274139
10
156.823833
20
147.062472
10
156.686250
20
146.713222
10
156.707417
20
146.512139
10
156.834417
20
146.194639
0
LWPOLYLINE
8
PDF_GEOMETRY
90
4
70
0
10
211.497333
20
148.522972
10
212.608583
20
161.170056
10
207.369833
20
158.735889
10
212.100583
20
155.423306
0
LWPOLYLINE
8
PDF_GEOMETRY
90
4
70
0
10
204.427667
20
155.264556
10
204.512333
20
154.999972
10
204.501750
20
154.396722
10
206.502000
20
157.264806
0
LWPOLYLINE
8
PDF_GEOMETRY
90
4
70
0
10
207.412167
20
156.227639
10
207.412167
20
156.428722
10
207.602667
20
156.502806
10
207.592083
20
156.301722
0
LWPOLYLINE
8
PDF_GEOMETRY
90
23
70
0
10
207.793167
20
152.703389
10
207.507417
20
152.502306
10
207.137000
20
152.555222
10
206.957083
20
152.682222
10
206.777167
20
153.010306
10
206.883000
20
153.550056
10
207.274583
20
154.290889
10
207.750833
20
154.978806
10
208.227083
20
155.455056
10
208.597500
20
155.603222
10
208.967917
20
155.550306
10
209.052583
20
155.486806
10
209.232500
20
155.158722
10
209.221917
20
154.756556
10
209.031417
20
154.280306
10
208.936167
20
154.142722
10
208.555167
20
153.804056
10
208.184750
20
153.655889
10
207.814333
20
153.708806
10
207.719083
20
153.772306
10
207.539167
20
154.100389
10
207.549750
20
154.502556
10
207.750833
20
154.978806
0
LWPOLYLINE
8
PDF_GEOMETRY
90
4
70
0
10
197.516750
20
100.464056
10
208.523417
20
106.814056
10
203.517500
20
109.692722
10
203.517500
20
103.924806
0
LWPOLYLINE
8
PDF_GEOMETRY
90
4
70
0
10
198.987833
20
110.116056
10
198.818500
20
109.893806
10
198.321083
20
109.565722
10
201.824167
20
109.565722
0
LWPOLYLINE
8
PDF_GEOMETRY
90
4
70
0
10
201.485500
20
108.232222
10
201.654833
20
108.338056
10
201.824167
20
108.232222
10
201.654833
20
108.115806
0
LWPOLYLINE
8
PDF_GEOMETRY
90
23
70
0
10
198.818500
20
105.893306
10
198.490417
20
106.009722
10
198.321083
20
106.337806
10
198.321083
20
106.560056
10
198.490417
20
106.898722
10
198.987833
20
107.120972
10
199.823917
20
107.226806
10
200.660000
20
107.226806
10
201.326750
20
107.120972
10
201.654833
20
106.898722
10
201.824167
20
106.560056
10
201.824167
20
106.454222
10
201.654833
20
106.115556
10
201.326750
20
105.893306
10
200.818750
20
105.787472
10
200.660000
20
105.787472
10
200.152000
20
105.893306
10
199.823917
20
106.115556
10
199.654583
20
106.454222
10
199.654583
20
106.560056
10
199.823917
20
106.898722
10
200.152000
20
107.120972
10
200.660000
20
107.226806
0
LWPOLYLINE
8
PDF_GEOMETRY
90
33
70
0
10
222.292333
20
128.144764
10
222.221270
20
127.439836
10
222.017458
20
126.783265
10
221.694963
20
126.189115
10
221.267851
20
125.671451
10
220.750186
20
125.244340
10
220.156036
20
124.921846
10
219.499466
20
124.718035
10
218.794542
20
124.646972
10
218.089617
20
124.718035
10
217.433047
20
124.921846
10
216.838897
20
125.244340
10
216.321233
20
125.671451
10
215.894120
20
126.189115
10
215.571625
20
126.783265
10
215.367813
20
127.439836
10
215.296750
20
128.144764
10
215.367813
20
128.849691
10
215.571625
20
129.506263
10
215.894120
20
130.100413
10
216.321233
20
130.618077
10
216.838897
20
131.045188
10
217.433047
20
131.367682
10
218.089617
20
131.571493
10
218.794542
20
131.642556
10
219.499466
20
131.571493
10
220.156036
20
131.367682
10
220.750186
20
131.045188
10
221.267851
20
130.618077
10
221.694963
20
130.100413
10
222.017458
20
129.506263
10
222.221270
20
128.849691
10
222.292333
20
128.144764
0
LWPOLYLINE
8
PDF_GEOMETRY
90
3
70
0
10
217.984917
20
129.250722
10
218.873917
20
125.758222
10
219.762917
20
129.250722
0
LWPOLYLINE
8
PDF_GEOMETRY
90
17
70
0
10
173.704250
20
45.663556
10
173.365583
20
45.832889
10
173.143333
20
46.330306
10
173.037500
20
47.166389
10
173.037500
20
47.663806
10
173.143333
20
48.499889
10
173.365583
20
48.997306
10
173.704250
20
49.166639
10
173.926500
20
49.166639
10
174.254583
20
48.997306
10
174.476833
20
48.499889
10
174.593250
20
47.663806
10
174.593250
20
47.166389
10
174.476833
20
46.330306
10
174.254583
20
45.832889
10
173.926500
20
45.663556
10
173.704250
20
45.663556
0
LWPOLYLINE
8
PDF_GEOMETRY
90
4
70
0
10
175.365833
20
48.838556
10
175.260000
20
48.997306
10
175.365833
20
49.166639
10
175.482250
20
48.997306
0
LWPOLYLINE
8
PDF_GEOMETRY
90
17
70
0
10
177.038000
20
45.663556
10
176.699333
20
45.832889
10
176.477083
20
46.330306
10
176.371250
20
47.166389
10
176.371250
20
47.663806
10
176.477083
20
48.499889
10
176.699333
20
48.997306
10
177.038000
20
49.166639
10
177.260250
20
49.166639
10
177.588333
20
48.997306
10
177.810583
20
48.499889
10
177.927000
20
47.663806
10
177.927000
20
47.166389
10
177.810583
20
46.330306
10
177.588333
20
45.832889
10
177.260250
20
45.663556
10
177.038000
20
45.663556
0
LWPOLYLINE
8
PDF_GEOMETRY
90
17
70
0
10
179.927250
20
45.663556
10
178.816000
20
45.663556
10
178.699583
20
47.166389
10
178.816000
20
46.997056
10
179.144083
20
46.838306
10
179.482750
20
46.838306
10
179.810833
20
46.997056
10
180.033083
20
47.335722
10
180.149500
20
47.833139
10
180.149500
20
48.171806
10
180.033083
20
48.669222
10
179.810833
20
48.997306
10
179.482750
20
49.166639
10
179.144083
20
49.166639
10
178.816000
20
48.997306
10
178.699583
20
48.838556
10
178.593750
20
48.499889
0
LWPOLYLINE
8
PDF_GEOMETRY
90
3
70
0
10
184.329917
20
49.166639
10
185.218917
20
45.663556
10
186.107917
20
49.166639
0
LWPOLYLINE
8
PDF_GEOMETRY
90
4
70
0
10
171.111333
20
51.569056
10
187.854167
20
51.569056
10
187.854167
20
44.562889
10
171.111333
20
44.562889
0
LWPOLYLINE
8
PDF_GEOMETRY
90
5
70
1
10
145.330333
20
62.850889
10
146.325167
20
62.850889
10
145.827750
20
66.851389
10
145.330333
20
62.850889
10
145.330333
20
62.850889
0
LWPOLYLINE
8
PDF_GEOMETRY
90
17
70
0
10
99.758500
20
128.012472
10
99.419833
20
128.181806
10
99.197583
20
128.679222
10
99.091750
20
129.515306
10
99.091750
20
130.012722
10
99.197583
20
130.848806
10
99.419833
20
131.346222
10
99.758500
20
131.515556
10
99.980750
20
131.515556
10
100.308833
20
131.346222
10
100.531083
20
130.848806
10
100.647500
20
130.012722
10
100.647500
20
129.515306
10
100.531083
20
128.679222
10
100.308833
20
128.181806
10
99.980750
20
128.012472
10
99.758500
20
128.012472
0
LWPOLYLINE
8
PDF_GEOMETRY
90
4
70
0
10
101.420083
20
131.176889
10
101.314250
20
131.346222
10
101.420083
20
131.515556
10
101.536500
20
131.346222
0
LWPOLYLINE
8
PDF_GEOMETRY
90
17
70
0
10
103.092250
20
128.012472
10
102.753583
20
128.181806
10
102.531333
20
128.679222
10
102.425500
20
129.515306
10
102.425500
20
130.012722
10
102.531333
20
130.848806
10
102.753583
20
131.346222
10
103.092250
20
131.515556
10
103.314500
20
131.515556
10
103.653167
20
131.346222
10
103.875417
20
130.848806
10
103.981250
20
130.012722
10
103.981250
20
129.515306
10
103.875417
20
128.679222
10
103.653167
20
128.181806
10
103.314500
20
128.012472
10
103.092250
20
128.012472
0
LWPOLYLINE
8
PDF_GEOMETRY
90
3
70
0
10
104.648000
20
128.012472
10
106.203750
20
128.012472
10
105.092500
20
131.515556
0
LWPOLYLINE
8
PDF_GEOMETRY
90
3
70
0
10
110.384167
20
131.515556
10
111.273167
20
128.012472
10
112.162167
20
131.515556
0
LWPOLYLINE
8
PDF_GEOMETRY
90
4
70
0
10
97.165583
20
133.907389
10
113.908417
20
133.907389
10
113.908417
20
126.911806
10
97.165583
20
126.911806
0
LWPOLYLINE
8
PDF_GEOMETRY
90
5
70
1
10
81.026000
20
91.859806
10
81.523417
20
95.849722
10
80.528583
20
95.849722
10
81.026000
20
91.859806
10
81.026000
20
91.859806
0
LWPOLYLINE
8
PDF_GEOMETRY
90
17
70
0
10
99.345750
20
118.434556
10
99.017667
20
118.603889
10
98.795417
20
119.101306
10
98.679000
20
119.937389
10
98.679000
20
120.434806
10
98.795417
20
121.270889
10
99.017667
20
121.768306
10
99.345750
20
121.937639
10
99.568000
20
121.937639
10
99.906667
20
121.768306
10
100.128917
20
121.270889
10
100.245333
20
120.434806
10
100.245333
20
119.937389
10
100.128917
20
119.101306
10
99.906667
20
118.603889
10
99.568000
20
118.434556
10
99.345750
20
118.434556
0
LWPOLYLINE
8
PDF_GEOMETRY
90
4
70
0
10
101.017917
20
121.609556
10
100.912083
20
121.768306
10
101.017917
20
121.937639
10
101.134333
20
121.768306
0
LWPOLYLINE
8
PDF_GEOMETRY
90
17
70
0
10
102.690083
20
118.434556
10
102.351417
20
118.603889
10
102.129167
20
119.101306
10
102.023333
20
119.937389
10
102.023333
20
120.434806
10
102.129167
20
121.270889
10
102.351417
20
121.768306
10
102.690083
20
121.937639
10
102.912333
20
121.937639
10
103.240417
20
121.768306
10
103.462667
20
121.270889
10
103.579083
20
120.434806
10
103.579083
20
119.937389
10
103.462667
20
119.101306
10
103.240417
20
118.603889
10
102.912333
20
118.434556
10
102.690083
20
118.434556
0
LWPOLYLINE
8
PDF_GEOMETRY
90
3
70
0
10
104.245833
20
118.434556
10
105.801583
20
118.434556
10
104.690333
20
121.937639
0
LWPOLYLINE
8
PDF_GEOMETRY
90
3
70
0
10
109.982000
20
121.937639
10
110.871000
20
118.434556
10
111.760000
20
121.937639
0
LWPOLYLINE
8
PDF_GEOMETRY
90
4
70
0
10
96.763417
20
124.340056
10
113.506250
20
124.340056
10
113.506250
20
117.333889
10
96.763417
20
117.333889
0
LWPOLYLINE
8
PDF_GEOMETRY
90
5
70
1
10
87.524167
20
111.851722
10
88.021583
20
115.852222
10
87.026750
20
115.852222
10
87.524167
20
111.851722
10
87.524167
20
111.851722
0
LWPOLYLINE
8
PDF_GEOMETRY
90
3
70
0
10
335.798583
20
56.818389
10
335.332917
20
58.606972
10
334.676750
20
59.771139
0
LWPOLYLINE
8
PDF_GEOMETRY
90
3
70
0
10
335.798583
20
58.903306
10
335.798583
20
61.856056
10
335.375250
20
61.273972
0
LWPOLYLINE
8
PDF_GEOMETRY
90
3
70
0
10
357.494417
20
47.155806
10
348.604417
20
62.554556
10
344.455750
20
55.357889
0
LWPOLYLINE
8
PDF_GEOMETRY
90
33
70
0
10
351.006833
20
57.755014
10
350.958133
20
57.271912
10
350.818457
20
56.821948
10
350.597446
20
56.414762
10
350.304737
20
56.059993
10
349.949970
20
55.767282
10
349.542783
20
55.546268
10
349.092816
20
55.406590
10
348.609708
20
55.357889
10
348.126600
20
55.406590
10
347.676634
20
55.546268
10
347.269447
20
55.767282
10
346.914680
20
56.059993
10
346.621971
20
56.414762
10
346.400959
20
56.821948
10
346.261284
20
57.271912
10
346.212583
20
57.755014
10
346.261284
20
58.238116
10
346.400959
20
58.688080
10
346.621971
20
59.095266
10
346.914680
20
59.450034
10
347.269447
20
59.742746
10
347.676634
20
59.963760
10
348.126600
20
60.103438
10
348.609708
20
60.152139
10
349.092816
20
60.103438
10
349.542783
20
59.963760
10
349.949970
20
59.742746
10
350.304737
20
59.450034
10
350.597446
20
59.095266
10
350.818457
20
58.688080
10
350.958133
20
58.238116
10
351.006833
20
57.755014
0
LWPOLYLINE
8
PDF_GEOMETRY
90
3
70
0
10
218.249500
20
147.454056
10
226.483333
20
159.212139
10
234.315000
20
159.212139
0
LWPOLYLINE
8
PDF_GEOMETRY
90
4
70
1
10
218.249500
20
147.454056
10
220.958833
20
150.449139
10
219.837000
20
150.449139
10
218.249500
20
147.454056
0
LWPOLYLINE
8
PDF_GEOMETRY
90
5
70
1
10
220.958833
20
150.449139
10
219.837000
20
150.449139
10
220.133333
20
151.020639
10
220.958833
20
150.449139
10
220.958833
20
150.449139
0
LWPOLYLINE
8
PDF_GEOMETRY
90
4
70
1
10
220.958833
20
150.449139
10
221.255167
20
151.020639
10
220.133333
20
151.020639
10
220.958833
20
150.449139
0
LWPOLYLINE
8
PDF_GEOMETRY
90
5
70
1
10
221.255167
20
151.020639
10
220.133333
20
151.020639
10
222.842667
20
154.005139
10
221.255167
20
151.020639
10
221.255167
20
151.020639
0
LWPOLYLINE
8
PDF_GEOMETRY
90
17
70
0
10
230.462667
20
157.296556
10
230.124000
20
157.127222
10
229.901750
20
156.799139
10
229.795917
20
156.291139
10
229.795917
20
155.963056
10
229.901750
20
155.465639
10
230.124000
20
155.126972
10
230.462667
20
154.957639
10
230.684917
20
154.957639
10
231.013000
20
155.126972
10
231.235250
20
155.465639
10
231.351667
20
155.963056
10
231.351667
20
156.291139
10
231.235250
20
156.799139
10
231.013000
20
157.127222
10
230.684917
20
157.296556
10
230.462667
20
157.296556
0
LWPOLYLINE
8
PDF_GEOMETRY
90
29
70
0
10
232.801583
20
153.793472
10
232.462917
20
153.962806
10
232.357083
20
154.290889
10
232.357083
20
154.629556
10
232.462917
20
154.957639
10
232.685167
20
155.126972
10
233.129667
20
155.296306
10
233.468333
20
155.465639
10
233.690583
20
155.793722
10
233.796417
20
156.132389
10
233.796417
20
156.629806
10
233.690583
20
156.957889
10
233.574167
20
157.127222
10
233.246083
20
157.296556
10
232.801583
20
157.296556
10
232.462917
20
157.127222
10
232.357083
20
156.957889
10
232.240667
20
156.629806
10
232.240667
20
156.132389
10
232.357083
20
155.793722
10
232.579333
20
155.465639
10
232.907417
20
155.296306
10
233.351917
20
155.126972
10
233.574167
20
154.957639
10
233.690583
20
154.629556
10
233.690583
20
154.290889
10
233.574167
20
153.962806
10
233.246083
20
153.793472
10
232.801583
20
153.793472
0
LWPOLYLINE
8
PDF_GEOMETRY
90
3
70
0
10
411.120167
20
270.823972
10
271.113250
20
270.823972
10
411.120167
20
270.823972
0
LWPOLYLINE
8
PDF_GEOMETRY
90
3
70
0
10
411.120167
20
147.041306
10
411.120167
20
287.037639
10
411.120167
20
147.041306
0
LWPOLYLINE
8
PDF_GEOMETRY
90
3
70
0
10
287.739667
20
264.463389
10
287.718500
20
267.479639
10
287.718500
20
267.596056
0
LWPOLYLINE
8
PDF_GEOMETRY
90
3
70
0
10
287.041167
20
265.553472
10
287.559750
20
266.357806
10
287.686750
20
266.326056
0
LWPOLYLINE
8
PDF_GEOMETRY
90
4
70
0
10
286.713083
20
266.548306
10
287.072917
20
266.093222
10
287.221083
20
265.775722
10
287.485667
20
265.087806
0
LWPOLYLINE
8
PDF_GEOMETRY
90
4
70
0
10
283.273500
20
264.315222
10
283.273500
20
267.405556
10
283.241750
20
267.754806
10
283.008917
20
267.204472
0
LWPOLYLINE
8
PDF_GEOMETRY
90
5
70
0
10
286.808333
20
272.326806
10
286.808333
20
273.787306
10
286.935333
20
273.946056
10
287.676167
20
273.871972
10
287.655000
20
273.173472
0
LWPOLYLINE
8
PDF_GEOMETRY
90
3
70
0
10
287.348083
20
273.903722
10
287.348083
20
275.956889
10
287.030583
20
275.374806
0
LWPOLYLINE
8
PDF_GEOMETRY
90
3
70
0
10
282.204583
20
272.358556
10
282.204583
20
275.798139
10
281.950583
20
275.332472
0
LWPOLYLINE
8
PDF_GEOMETRY
90
5
70
0
10
282.564417
20
272.358556
10
282.564417
20
273.871972
10
282.670250
20
273.946056
10
283.188833
20
273.903722
10
283.157083
20
273.247556
0
LWPOLYLINE
8
PDF_GEOMETRY
90
3
70
0
10
288.586333
20
281.904722
10
288.300583
20
282.634972
10
287.813750
20
283.566306
0
LWPOLYLINE
8
PDF_GEOMETRY
90
3
70
0
10
320.823167
20
251.985639
10
321.595750
20
254.261056
10
321.796833
20
254.261056
0
LWPOLYLINE
8
PDF_GEOMETRY
90
4
70
0
10
321.616917
20
251.297722
10
321.183000
20
253.033389
10
320.897250
20
253.922389
10
320.643250
20
254.345722
0
LWPOLYLINE
8
PDF_GEOMETRY
90
3
70
0
10
293.359417
20
251.022556
10
293.359417
20
254.462139
10
293.105417
20
253.996472
0
LWPOLYLINE
8
PDF_GEOMETRY
90
4
70
0
10
294.005000
20
250.980222
10
293.793333
20
252.715889
10
293.666333
20
253.414389
10
293.433500
20
254.070556
0
LWPOLYLINE
8
PDF_GEOMETRY
90
4
70
0
10
294.280167
20
252.525389
10
294.005000
20
253.647222
10
293.793333
20
254.112889
10
293.518167
20
254.493889
0
LWPOLYLINE
8
PDF_GEOMETRY
90
3
70
0
10
293.825083
20
253.107472
10
294.259000
20
254.377472
10
294.513000
20
254.345722
0
LWPOLYLINE
8
PDF_GEOMETRY
90
5
70
0
10
344.635667
20
249.509139
10
344.635667
20
252.292556
10
344.910833
20
252.599472
10
345.228333
20
252.599472
10
345.228333
20
251.784556
0
LWPOLYLINE
8
PDF_GEOMETRY
90
3
70
0
10
346.149083
20
252.483056
10
346.434833
20
251.519972
10
346.540667
20
250.514556
0
LWPOLYLINE
8
PDF_GEOMETRY
90
3
70
0
10
346.974583
20
249.435056
10
346.974583
20
252.747639
10
346.720583
20
252.250222
0
LWPOLYLINE
8
PDF_GEOMETRY
90
3
70
0
10
344.043000
20
257.266722
10
343.958333
20
258.081639
10
343.810167
20
258.769556
0
LWPOLYLINE
8
PDF_GEOMETRY
90
3
70
0
10
345.376500
20
258.737806
10
345.228333
20
259.542139
10
345.662250
20
259.933722
0
LWPOLYLINE
8
PDF_GEOMETRY
90
4
70
0
10
345.609333
20
258.769556
10
345.503500
20
259.468056
10
345.355333
20
259.933722
10
345.122500
20
260.240639
0
LWPOLYLINE
8
PDF_GEOMETRY
90
4
70
0
10
345.969167
20
256.885722
10
345.916250
20
257.615972
10
345.842167
20
258.081639
10
345.683417
20
258.811889
0
LWPOLYLINE
8
PDF_GEOMETRY
90
4
70
0
10
346.127917
20
257.996972
10
346.043250
20
259.002389
10
345.895083
20
259.700889
10
345.588167
20
260.314722
0
LWPOLYLINE
8
PDF_GEOMETRY
90
3
70
0
10
345.768083
20
258.504972
10
346.180833
20
260.166556
10
346.413667
20
260.166556
0
LWPOLYLINE
8
PDF_GEOMETRY
90
3
70
0
10
351.207917
20
264.008306
10
350.901000
20
264.315222
10
350.435333
20
264.548056
0
LWPOLYLINE
8
PDF_GEOMETRY
90
3
70
0
10
359.420583
20
250.281722
10
359.695750
20
249.868972
10
359.695750
20
252.366639
0
LWPOLYLINE
8
PDF_GEOMETRY
90
17
70
0
10
360.690583
20
251.430014
10
360.691981
20
251.452409
10
360.695989
20
251.473268
10
360.702332
20
251.492144
10
360.710732
20
251.508590
10
360.720913
20
251.522160
10
360.732598
20
251.532406
10
360.745511
20
251.538881
10
360.759375
20
251.541139
10
360.773239
20
251.538881
10
360.786152
20
251.532406
10
360.797837
20
251.522160
10
360.808018
20
251.508590
10
360.816418
20
251.492144
10
360.822761
20
251.473268
10
360.826769
20
251.452409
10
360.828167
20
251.430014
0
LWPOLYLINE
8
PDF_GEOMETRY
90
17
70
0
10
360.701167
20
251.430014
10
360.702349
20
251.446011
10
360.705739
20
251.460910
10
360.711104
20
251.474393
10
360.718210
20
251.486140
10
360.726823
20
251.495833
10
360.736711
20
251.503151
10
360.747639
20
251.507776
10
360.759375
20
251.509389
10
360.771111
20
251.507776
10
360.782039
20
251.503151
10
360.791927
20
251.495833
10
360.800540
20
251.486140
10
360.807646
20
251.474393
10
360.813011
20
251.460910
10
360.816401
20
251.446011
10
360.817583
20
251.430014
0
LWPOLYLINE
8
PDF_GEOMETRY
90
17
70
0
10
360.796417
20
251.430014
10
360.795664
20
251.418283
10
360.793507
20
251.407356
10
360.790092
20
251.397469
10
360.785570
20
251.388854
10
360.780088
20
251.381747
10
360.773796
20
251.376380
10
360.766842
20
251.372988
10
360.759375
20
251.371806
10
360.751908
20
251.372988
10
360.744954
20
251.376380
10
360.738662
20
251.381747
10
360.733180
20
251.388854
10
360.728658
20
251.397469
10
360.725243
20
251.407356
10
360.723086
20
251.418283
10
360.722333
20
251.430014
0
LWPOLYLINE
8
PDF_GEOMETRY
90
17
70
0
10
360.722333
20
251.430014
10
360.723086
20
251.441745
10
360.725243
20
251.452671
10
360.728658
20
251.462559
10
360.733180
20
251.471174
10
360.738662
20
251.478281
10
360.744954
20
251.483648
10
360.751908
20
251.487040
10
360.759375
20
251.488222
10
360.766842
20
251.487040
10
360.773796
20
251.483648
10
360.780088
20
251.478281
10
360.785570
20
251.471174
10
360.790092
20
251.462559
10
360.793507
20
251.452671
10
360.795664
20
251.441745
10
360.796417
20
251.430014
0
LWPOLYLINE
8
PDF_GEOMETRY
90
17
70
0
10
360.775250
20
251.430014
10
360.774927
20
251.424681
10
360.774002
20
251.419714
10
360.772538
20
251.415220
10
360.770599
20
251.411304
10
360.768249
20
251.408074
10
360.765553
20
251.405635
10
360.762573
20
251.404093
10
360.759375
20
251.403556
10
360.756177
20
251.404093
10
360.753197
20
251.405635
10
360.750501
20
251.408074
10
360.748151
20
251.411304
10
360.746212
20
251.415220
10
360.744748
20
251.419714
10
360.743823
20
251.424681
10
360.743500
20
251.430014
0
LWPOLYLINE
8
PDF_GEOMETRY
90
17
70
0
10
360.743500
20
251.430014
10
360.743823
20
251.435347
10
360.744748
20
251.440313
10
360.746212
20
251.444808
10
360.748151
20
251.448723
10
360.750501
20
251.451954
10
360.753197
20
251.454393
10
360.756177
20
251.455935
10
360.759375
20
251.456472
10
360.762573
20
251.455935
10
360.765553
20
251.454393
10
360.768249
20
251.451954
10
360.770599
20
251.448723
10
360.772538
20
251.444808
10
360.774002
20
251.440313
10
360.774927
20
251.435347
10
360.775250
20
251.430014
0
LWPOLYLINE
8
PDF_GEOMETRY
90
17
70
0
10
360.690583
20
252.065014
10
360.691981
20
252.087409
10
360.695989
20
252.108268
10
360.702332
20
252.127144
10
360.710732
20
252.143590
10
360.720913
20
252.157160
10
360.732598
20
252.167406
10
360.745511
20
252.173881
10
360.759375
20
252.176139
10
360.773239
20
252.173881
10
360.786152
20
252.167406
10
360.797837
20
252.157160
10
360.808018
20
252.143590
10
360.816418
20
252.127144
10
360.822761
20
252.108268
10
360.826769
20
252.087409
10
360.828167
20
252.065014
0
LWPOLYLINE
8
PDF_GEOMETRY
90
17
70
0
10
360.828167
20
252.065014
10
360.826769
20
252.042619
10
360.822761
20
252.021760
10
360.816418
20
252.002884
10
360.808018
20
251.986437
10
360.797837
20
251.972868
10
360.786152
20
251.962622
10
360.773239
20
251.956147
10
360.759375
20
251.953889
10
360.745511
20
251.956147
10
360.732598
20
251.962622
10
360.720913
20
251.972868
10
360.710732
20
251.986437
10
360.702332
20
252.002884
10
360.695989
20
252.021760
10
360.691981
20
252.042619
10
360.690583
20
252.065014
0
LWPOLYLINE
8
PDF_GEOMETRY
90
17
70
0
10
360.817583
20
252.065014
10
360.816401
20
252.049017
10
360.813011
20
252.034118
10
360.807646
20
252.020635
10
360.800540
20
252.008887
10
360.791927
20
251.999195
10
360.782039
20
251.991877
10
360.771111
20
251.987252
10
360.759375
20
251.985639
10
360.747639
20
251.987252
10
360.736711
20
251.991877
10
360.726823
20
251.999195
10
360.718210
20
252.008887
10
360.711104
20
252.020635
10
360.705739
20
252.034118
10
360.702349
20
252.049017
10
360.701167
20
252.065014
0
LWPOLYLINE
8
PDF_GEOMETRY
90
17
70
0
10
360.701167
20
252.065014
10
360.702349
20
252.081011
10
360.705739
20
252.095910
10
360.711104
20
252.109393
10
360.718210
20
252.121140
10
360.726823
20
252.130833
10
360.736711
20
252.138151
10
360.747639
20
252.142776
10
360.759375
20
252.144389
10
360.771111
20
252.142776
10
360.782039
20
252.138151
10
360.791927
20
252.130833
10
360.800540
20
252.121140
10
360.807646
20
252.109393
10
360.813011
20
252.095910
10
360.816401
20
252.081011
10
360.817583
20
252.065014
0
LWPOLYLINE
8
PDF_GEOMETRY
90
17
70
0
10
360.796417
20
252.065014
10
360.795664
20
252.053283
10
360.793507
20
252.042356
10
360.790092
20
252.032469
10
360.785570
20
252.023854
10
360.780088
20
252.016747
10
360.773796
20
252.011380
10
360.766842
20
252.007988
10
360.759375
20
252.006806
10
360.751908
20
252.007988
10
360.744954
20
252.011380
10
360.738662
20
252.016747
10
360.733180
20
252.023854
10
360.728658
20
252.032469
10
360.725243
20
252.042356
10
360.723086
20
252.053283
10
360.722333
20
252.065014
0
LWPOLYLINE
8
PDF_GEOMETRY
90
17
70
0
10
360.722333
20
252.065014
10
360.723086
20
252.076745
10
360.725243
20
252.087671
10
360.728658
20
252.097559
10
360.733180
20
252.106174
10
360.738662
20
252.113281
10
360.744954
20
252.118648
10
360.751908
20
252.122040
10
360.759375
20
252.123222
10
360.766842
20
252.122040
10
360.773796
20
252.118648
10
360.780088
20
252.113281
10
360.785570
20
252.106174
10
360.790092
20
252.097559
10
360.793507
20
252.087671
10
360.795664
20
252.076745
10
360.796417
20
252.065014
0
LWPOLYLINE
8
PDF_GEOMETRY
90
17
70
0
10
360.775250
20
252.065014
10
360.774927
20
252.059681
10
360.774002
20
252.054714
10
360.772538
20
252.050220
10
360.770599
20
252.046304
10
360.768249
20
252.043074
10
360.765553
20
252.040635
10
360.762573
20
252.039093
10
360.759375
20
252.038556
10
360.756177
20
252.039093
10
360.753197
20
252.040635
10
360.750501
20
252.043074
10
360.748151
20
252.046304
10
360.746212
20
252.050220
10
360.744748
20
252.054714
10
360.743823
20
252.059681
10
360.743500
20
252.065014
0
LWPOLYLINE
8
PDF_GEOMETRY
90
17
70
0
10
360.743500
20
252.065014
10
360.743823
20
252.070347
10
360.744748
20
252.075313
10
360.746212
20
252.079808
10
360.748151
20
252.083723
10
360.750501
20
252.086954
10
360.753197
20
252.089393
10
360.756177
20
252.090935
10
360.759375
20
252.091472
10
360.762573
20
252.090935
10
360.765553
20
252.089393
10
360.768249
20
252.086954
10
360.770599
20
252.083723
10
360.772538
20
252.079808
10
360.774002
20
252.075313
10
360.774927
20
252.070347
10
360.775250
20
252.065014
0
LWPOLYLINE
8
PDF_GEOMETRY
90
17
70
0
10
360.828167
20
251.430014
10
360.826769
20
251.407619
10
360.822761
20
251.386760
10
360.816418
20
251.367884
10
360.808018
20
251.351437
10
360.797837
20
251.337868
10
360.786152
20
251.327622
10
360.773239
20
251.321147
10
360.759375
20
251.318889
10
360.745511
20
251.321147
10
360.732598
20
251.327622
10
360.720913
20
251.337868
10
360.710732
20
251.351437
10
360.702332
20
251.367884
10
360.695989
20
251.386760
10
360.691981
20
251.407619
10
360.690583
20
251.430014
0
LWPOLYLINE
8
PDF_GEOMETRY
90
17
70
0
10
360.817583
20
251.430014
10
360.816401
20
251.414017
10
360.813011
20
251.399118
10
360.807646
20
251.385635
10
360.800540
20
251.373887
10
360.791927
20
251.364195
10
360.782039
20
251.356877
10
360.771111
20
251.352252
10
360.759375
20
251.350639
10
360.747639
20
251.352252
10
360.736711
20
251.356877
10
360.726823
20
251.364195
10
360.718210
20
251.373887
10
360.711104
20
251.385635
10
360.705739
20
251.399118
10
360.702349
20
251.414017
10
360.701167
20
251.430014
0
LWPOLYLINE
8
PDF_GEOMETRY
90
3
70
0
10
361.748917
20
250.281722
10
362.024083
20
249.868972
10
362.024083
20
252.366639
0
LWPOLYLINE
8
PDF_GEOMETRY
90
3
70
0
10
380.460250
20
264.854972
10
380.460250
20
268.442722
10
380.174500
20
267.828889
0
LWPOLYLINE
8
PDF_GEOMETRY
90
3
70
0
10
380.407333
20
266.050889
10
380.100417
20
267.098639
10
379.835833
20
267.754806
0
LWPOLYLINE
8
PDF_GEOMETRY
90
3
70
0
10
381.381000
20
266.357806
10
381.148167
20
267.130389
10
380.925917
20
267.754806
0
LWPOLYLINE
8
PDF_GEOMETRY
90
14
70
0
10
398.335500
20
265.606389
10
398.335500
20
265.437056
10
398.451917
20
265.108972
10
398.557750
20
264.939639
10
398.780000
20
264.770306
10
399.224500
20
264.770306
10
399.446750
20
264.939639
10
399.563167
20
265.108972
10
399.669000
20
265.437056
10
399.669000
20
265.775722
10
399.563167
20
266.103806
10
399.340917
20
266.601222
10
398.229667
20
268.273389
10
399.785417
20
268.273389
0
LWPOLYLINE
8
PDF_GEOMETRY
90
17
70
0
10
401.118917
20
264.770306
10
400.780250
20
264.939639
10
400.558000
20
265.437056
10
400.452167
20
266.273139
10
400.452167
20
266.770556
10
400.558000
20
267.606639
10
400.780250
20
268.104056
10
401.118917
20
268.273389
10
401.341167
20
268.273389
10
401.669250
20
268.104056
10
401.891500
20
267.606639
10
402.007917
20
266.770556
10
402.007917
20
266.273139
10
401.891500
20
265.437056
10
401.669250
20
264.939639
10
401.341167
20
264.770306
10
401.118917
20
264.770306
0
LWPOLYLINE
8
PDF_GEOMETRY
90
17
70
0
10
403.341417
20
264.770306
10
403.002750
20
264.939639
10
402.780500
20
265.437056
10
402.674667
20
266.273139
10
402.674667
20
266.770556
10
402.780500
20
267.606639
10
403.002750
20
268.104056
10
403.341417
20
268.273389
10
403.563667
20
268.273389
10
403.891750
20
268.104056
10
404.114000
20
267.606639
10
404.230417
20
266.770556
10
404.230417
20
266.273139
10
404.114000
20
265.437056
10
403.891750
20
264.939639
10
403.563667
20
264.770306
10
403.341417
20
264.770306
0
T
E
X
T
8
N
O
T
E
S
1
0
6
.
3
5
0
0
0
0
2
0
1
0
0
.
8
9
4
4
4
4
3
0
0
.
0
4
0
1
.
4
1
1
1
1
1
1
A
1
 
C
A
6
1
4
0
 
F
O
R
K
 
P
A
R
T
 
D
R
A
W
I
N
G
 
-
 
A
3
5
0
0
.
0
0
0
0
0
0
0
T
E
X
T
8
N
O
T
E
S
1
0
6
.
3
5
0
0
0
0
2
0
9
8
.
7
7
7
7
7
8
3
0
0
.
0
4
0
1
.
0
5
8
3
3
3
1
M
A
T
E
R
I
A
L
:
 
H
T
2
0
0
5
0
0
.
0
0
0
0
0
0
0
T
E
X
T
8
N
O
T
E
S
1
0
6
.
3
5
0
0
0
0
2
0
9
6
.
6
6
1
1
1
1
3
0
0
.
0
4
0
0
.
9
8
7
7
7
8
1
S
O
U
R
C
E
:
 
C
A
6
1
4
0
 
P
D
F
 
/
 
V
E
R
I
F
Y
 
A
L
L
 
D
I
M
E
N
S
I
O
N
S
5
0
0
.
0
0
0
0
0
0
0
T
E
X
T
8
N
O
T
E
S
1
0
1
1
6
.
4
1
6
6
6
7
2
0
1
0
0
.
8
9
4
4
4
4
3
0
0
.
0
4
0
1
.
0
5
8
3
3
3
1
A
1
 
-
 
P
A
R
T
 
D
R
A
W
I
N
G
5
0
0
.
0
0
0
0
0
0
0
ENDSEC
0
EOF
